<?xml version="1.0" encoding="UTF-8" standalone="no"?>
<svg width="298px" height="48px" viewBox="0 0 298 48" version="1.1" xmlns="http://www.w3.org/2000/svg" xmlns:xlink="http://www.w3.org/1999/xlink" xmlns:sketch="http://www.bohemiancoding.com/sketch/ns">
    <!-- Generator: Sketch 3.1.1 (8761) - http://www.bohemiancoding.com/sketch -->
    <title>Imported Layers</title>
    <desc>Created with Sketch.</desc>
    <defs></defs>
    <g id="Page-1" stroke="none" stroke-width="1" fill="none" fill-rule="evenodd" sketch:type="MSPage">
        <g id="LOJAS-4" sketch:type="MSArtboardGroup" transform="translate(-975.000000, -429.000000)">
            <g id="Modal-2" sketch:type="MSLayerGroup" transform="translate(0.000000, 474.000000)">
                <g id="Imported-Layers" transform="translate(976.000000, -45.000000)" sketch:type="MSShapeGroup">
                    <path d="M15.669,5.773 C20.252,3.777 25.942,2.7 31.666,2.7 C37.397,2.7 42.591,3.781 47.179,5.784 C38.566,6.048 31.664,13.108 31.662,21.784 C31.661,12.949 24.503,5.785 15.669,5.773 L15.669,5.773 Z" id="Fill-1" fill="#FCDC9B"></path>
                    <path d="M15.669,5.773 C20.252,3.777 25.942,2.7 31.666,2.7 C37.397,2.7 42.591,3.781 47.179,5.784 C38.566,6.048 31.664,13.108 31.662,21.784 C31.661,12.949 24.503,5.785 15.669,5.773 L15.669,5.773 Z" id="Stroke-2" stroke="#FCDC9B"></path>
                    <path d="M15.187,19.136 C13.743,19.136 12.574,20.306 12.574,21.749 C12.574,23.194 13.743,24.363 15.187,24.363 C16.63,24.363 17.8,23.194 17.8,21.749 C17.8,20.306 16.63,19.136 15.187,19.136" id="Fill-3" fill="#D8272D"></path>
                    <path d="M47.402,19.1 C45.959,19.1 44.789,20.269 44.789,21.714 C44.789,23.159 45.959,24.327 47.402,24.327 C48.846,24.327 50.015,23.159 50.015,21.714 C50.015,20.269 48.846,19.1 47.402,19.1" id="Fill-4" fill="#099D4C"></path>
                    <path d="M15.585,13.974 C11.292,13.974 7.811,17.455 7.811,21.749 C7.811,26.045 11.292,29.523 15.585,29.523 C19.879,29.523 23.36,26.045 23.36,21.749 C23.36,17.455 19.879,13.974 15.585,13.974 L15.585,13.974 Z M15.585,27.136 C12.61,27.136 10.198,24.724 10.198,21.749 C10.198,18.773 12.61,16.361 15.585,16.361 C18.561,16.361 20.973,18.773 20.973,21.749 C20.973,24.724 18.561,27.136 15.585,27.136 L15.585,27.136 Z M63.962,5.996 L53.257,5.996 C47.797,2.322 40.342,0.027 31.792,0.027 C23.239,0.027 15.272,2.321 9.812,5.996 L-0.386,5.996 C1.277,7.941 2.508,10.574 2.814,12.382 C0.892,15.023 -0.247,18.272 -0.247,21.788 C-0.247,30.635 6.925,37.807 15.771,37.807 C20.791,37.807 25.269,35.495 28.206,31.882 C29.404,33.281 31.387,36.097 31.789,36.915 C31.789,36.915 34.089,33.479 35.382,31.896 C38.318,35.502 42.793,37.807 47.806,37.807 C56.652,37.807 63.824,30.635 63.824,21.788 C63.824,18.274 62.683,15.028 60.762,12.387 C61.067,10.579 62.297,7.944 63.962,5.996 L63.962,5.996 Z M15.771,34.683 C8.649,34.683 2.876,28.91 2.876,21.788 C2.876,14.668 8.649,8.894 15.771,8.894 C22.893,8.894 28.667,14.668 28.667,21.788 C28.667,28.91 22.893,34.683 15.771,34.683 L15.771,34.683 Z M15.796,5.773 C20.379,3.777 26.069,2.7 31.792,2.7 C37.525,2.7 42.718,3.781 47.307,5.784 C38.693,6.048 31.79,13.108 31.789,21.784 C31.787,12.949 24.629,5.785 15.796,5.773 L15.796,5.773 Z M47.806,34.683 C40.684,34.683 34.911,28.91 34.911,21.788 C34.911,14.668 40.684,8.894 47.806,8.894 C54.927,8.894 60.7,14.668 60.7,21.788 C60.7,28.91 54.927,34.683 47.806,34.683 L47.806,34.683 Z M47.801,13.939 C43.507,13.939 40.027,17.418 40.027,21.714 C40.027,26.006 43.507,29.488 47.801,29.488 C52.094,29.488 55.575,26.006 55.575,21.714 C55.575,17.418 52.094,13.939 47.801,13.939 L47.801,13.939 Z M47.801,27.101 C44.826,27.101 42.414,24.689 42.414,21.714 C42.414,18.737 44.826,16.325 47.801,16.325 C50.776,16.325 53.188,18.737 53.188,21.714 C53.188,24.689 50.776,27.101 47.801,27.101 L47.801,27.101 Z" id="Fill-5" fill="#0B0B0A"></path>
                    <path d="M291.361,18.101 L290.244,18.101 L290.244,13.405 L291.908,13.405 C292.744,13.405 293.807,13.507 293.807,14.773 C293.807,15.366 293.545,15.819 292.822,16.015 L293.947,18.101 L292.717,18.101 L291.74,16.187 L291.361,16.187 L291.361,18.101 L291.361,18.101 Z M291.361,15.437 C292.002,15.437 292.1,15.437 292.26,15.382 C292.619,15.273 292.647,15.015 292.647,14.757 C292.647,14.429 292.533,14.273 292.31,14.195 C292.135,14.14 291.994,14.14 291.361,14.14 L291.361,15.437 L291.361,15.437 Z" id="Fill-6" fill="#099D4C"></path>
                    <path d="M292.096,11.648 C289.736,11.648 287.826,13.554 287.826,15.913 C287.826,18.273 289.736,20.187 292.096,20.187 C294.455,20.187 296.365,18.273 296.365,15.913 C296.365,13.554 294.455,11.648 292.096,11.648 L292.096,11.648 Z M292.096,19.382 C290.182,19.382 288.627,17.827 288.627,15.913 C288.627,13.999 290.182,12.444 292.096,12.444 C294.01,12.444 295.565,13.999 295.565,15.913 C295.565,17.827 294.01,19.382 292.096,19.382 L292.096,19.382 Z" id="Fill-7" fill="#099D4C"></path>
                    <path d="M86.4,17.405 L86.4,13.53 L80.088,13.53 L80.088,7.734 L75.234,9.179 L75.234,13.53 L71.514,13.53 L71.514,17.405 L75.234,17.405 L75.234,29.827 C75.234,35.351 77.49,38.155 81.943,38.155 C83.541,38.155 84.932,37.937 86.074,37.507 L86.213,37.452 L85.994,33.632 L85.752,33.702 C85.104,33.89 84.25,33.984 83.215,33.984 C82.115,33.984 81.338,33.655 80.844,32.984 C80.342,32.296 80.088,31.132 80.088,29.538 L80.088,17.405 L86.4,17.405" id="Fill-8" fill="#1A1918"></path>
                    <path d="M103.168,13.093 C102.647,13.023 102.238,12.991 101.918,12.991 C100.428,12.991 99.029,13.476 97.762,14.429 C96.705,15.218 95.867,16.28 95.262,17.593 L95.01,13.53 L90.596,13.53 L90.609,13.741 C90.74,15.687 90.805,18.218 90.805,21.265 L90.805,37.616 L95.756,37.616 L95.756,24.89 C95.756,22.569 96.336,20.765 97.479,19.515 C98.615,18.28 99.994,17.648 101.576,17.648 C102.16,17.648 102.674,17.694 103.1,17.788 L103.342,17.843 L103.342,13.116 L103.168,13.093" id="Fill-9" fill="#1A1918"></path>
                    <path d="M107.645,13.53 L112.596,13.53 L112.596,37.616 L107.645,37.616 L107.645,13.53 Z" id="Fill-10" fill="#1A1918"></path>
                    <path d="M110.096,9.624 C111.029,9.624 111.793,9.32 112.367,8.734 C112.941,8.14 113.232,7.405 113.232,6.538 C113.232,5.687 112.936,4.96 112.353,4.374 C111.772,3.796 111.027,3.499 110.145,3.499 C109.229,3.499 108.469,3.796 107.887,4.374 C107.303,4.96 107.008,5.687 107.008,6.538 C107.008,7.405 107.299,8.14 107.873,8.734 C108.447,9.32 109.195,9.624 110.096,9.624" id="Fill-11" fill="#1A1918"></path>
                    <path d="M136.709,16.351 C134.777,14.046 132.326,12.874 129.42,12.874 C125.9,12.874 123.148,14.257 121.229,16.984 L121.027,13.413 L116.525,13.413 L116.547,13.749 C116.67,15.741 116.732,18.351 116.732,21.515 L116.732,47.429 L121.695,47.429 L121.695,35.101 C122.383,35.999 123.26,36.726 124.311,37.265 C125.629,37.937 127.098,38.273 128.676,38.273 C131.779,38.273 134.406,37.07 136.482,34.702 C138.549,32.343 139.596,29.14 139.596,25.179 C139.596,21.616 138.625,18.64 136.709,16.351 L136.709,16.351 Z M124.539,18.28 C125.594,17.523 126.766,17.132 128.025,17.132 C130.016,17.132 131.568,17.882 132.77,19.429 C133.975,20.984 134.586,22.984 134.586,25.374 C134.586,28.046 133.967,30.194 132.748,31.749 C131.529,33.304 129.924,34.062 127.838,34.062 C126.154,34.062 124.695,33.437 123.5,32.21 C122.303,30.984 121.695,29.444 121.695,27.632 L121.695,23.812 C121.695,23.132 121.908,22.226 122.326,21.101 C122.736,19.999 123.48,19.054 124.539,18.28 L124.539,18.28 Z" id="Fill-12" fill="#1A1918"></path>
                    <path d="M161.742,37.382 C161.484,35.968 161.354,34.07 161.354,31.741 L161.354,23.077 C161.354,19.843 160.541,17.327 158.94,15.601 C157.332,13.866 154.932,12.991 151.807,12.991 C148.619,12.991 145.834,13.726 143.527,15.179 L143.393,15.257 L144.555,18.632 L144.768,18.499 C146.619,17.319 148.756,16.718 151.121,16.718 C152.869,16.718 154.199,17.171 155.076,18.069 C155.957,18.96 156.402,20.234 156.402,21.851 L156.402,22.093 C151.69,22.116 148.041,22.89 145.561,24.398 C143.014,25.944 141.721,28.218 141.721,31.155 C141.721,33.077 142.424,34.741 143.811,36.101 C145.197,37.468 147.065,38.155 149.359,38.155 C152.461,38.155 154.938,37.046 156.729,34.859 L157.217,37.616 L161.785,37.616 L161.742,37.382 L161.742,37.382 Z M154.803,32.827 C153.674,33.859 152.252,34.382 150.584,34.382 C149.418,34.382 148.473,34.038 147.772,33.366 C147.074,32.702 146.721,31.757 146.721,30.562 C146.721,29.03 147.418,27.851 148.854,26.968 C150.272,26.093 152.844,25.64 156.5,25.624 L156.5,29.343 C156.5,30.632 155.93,31.804 154.803,32.827 L154.803,32.827 Z" id="Fill-13" fill="#099D4C"></path>
                    <path d="M186.815,37.734 L186.787,37.39 C186.666,35.898 186.604,33.819 186.604,31.202 L186.604,2.249 L181.639,2.249 L181.639,15.827 C180.984,15.046 180.164,14.398 179.191,13.89 C177.902,13.21 176.424,12.874 174.799,12.874 C171.756,12.874 169.166,14.109 167.106,16.546 C165.057,18.968 164.02,22.14 164.02,25.968 C164.02,29.499 165.006,32.468 166.955,34.773 C168.914,37.093 171.398,38.273 174.334,38.273 C176.152,38.273 177.803,37.843 179.24,36.984 C180.383,36.304 181.322,35.39 182.045,34.273 L182.315,37.734 L186.815,37.734 L186.815,37.734 Z M181.639,23.468 L181.639,27.234 C181.639,29.273 181.02,30.921 179.795,32.14 C178.568,33.351 177.154,33.968 175.59,33.968 C173.51,33.968 171.935,33.21 170.779,31.648 C169.619,30.077 169.029,28.07 169.029,25.671 C169.029,23.116 169.652,21.015 170.881,19.429 C172.106,17.851 173.678,17.085 175.684,17.085 C177.309,17.085 178.721,17.671 179.885,18.835 C181.049,19.999 181.639,21.562 181.639,23.468 L181.639,23.468 Z" id="Fill-14" fill="#099D4C"></path>
                    <path d="M207.139,13.53 C207.139,13.53 200.959,26.148 200.518,27.569 C199.959,25.859 193.815,13.53 193.815,13.53 L188.44,13.53 L200.541,37.616 L212.424,13.53 L207.139,13.53" id="Fill-15" fill="#099D4C"></path>
                    <path d="M214.822,13.53 L219.775,13.53 L219.775,37.616 L214.822,37.616 L214.822,13.53 Z" id="Fill-16" fill="#099D4C"></path>
                    <path d="M217.275,9.624 C218.209,9.624 218.975,9.32 219.549,8.734 C220.119,8.14 220.412,7.405 220.412,6.538 C220.412,5.687 220.115,4.96 219.533,4.374 C218.951,3.796 218.205,3.499 217.322,3.499 C216.408,3.499 215.646,3.796 215.065,4.374 C214.482,4.96 214.19,5.687 214.19,6.538 C214.19,7.405 214.479,8.14 215.053,8.734 C215.627,9.32 216.373,9.624 217.275,9.624" id="Fill-17" fill="#099D4C"></path>
                    <path d="M239.307,26.429 C238.295,25.296 236.611,24.304 234.307,23.476 C232.467,22.82 231.24,22.21 230.67,21.663 C230.111,21.124 229.838,20.484 229.838,19.702 C229.838,18.827 230.158,18.124 230.818,17.562 C231.482,17.007 232.4,16.718 233.553,16.718 C235.256,16.718 236.932,17.187 238.545,18.109 L238.752,18.234 L240.01,14.57 L239.869,14.484 C238.182,13.491 236.107,12.991 233.701,12.991 C231.1,12.991 228.986,13.694 227.412,15.069 C225.834,16.46 225.033,18.194 225.033,20.241 C225.033,23.304 227.268,25.624 231.678,27.132 C233.291,27.679 234.432,28.257 235.068,28.859 C235.693,29.46 235.994,30.202 235.994,31.155 C235.994,32.14 235.631,32.905 234.873,33.491 C234.115,34.077 233.01,34.382 231.596,34.382 C229.588,34.382 227.615,33.796 225.729,32.648 L225.51,32.515 L224.307,36.39 L224.451,36.468 C226.51,37.585 228.881,38.155 231.498,38.155 C234.354,38.155 236.646,37.476 238.315,36.132 C239.998,34.773 240.85,32.968 240.85,30.765 C240.85,29.038 240.33,27.585 239.307,26.429" id="Fill-18" fill="#099D4C"></path>
                    <path d="M263.561,16.445 C261.44,14.155 258.643,12.991 255.252,12.991 C251.85,12.991 248.99,14.163 246.752,16.468 C244.518,18.773 243.385,21.898 243.385,25.773 C243.385,29.413 244.482,32.413 246.646,34.702 C248.815,36.991 251.6,38.155 254.928,38.155 C257.06,38.155 259.072,37.624 260.908,36.585 C262.748,35.546 264.197,34.038 265.217,32.101 C266.236,30.171 266.752,27.898 266.752,25.327 C266.752,21.718 265.678,18.734 263.561,16.445 L263.561,16.445 Z M254.928,34.382 C253.018,34.382 251.404,33.554 250.135,31.921 C248.85,30.28 248.201,28.155 248.201,25.624 C248.201,23.085 248.826,20.945 250.057,19.265 C251.271,17.609 252.959,16.765 255.068,16.765 C257.143,16.765 258.807,17.616 260.006,19.288 C261.225,20.984 261.842,23.069 261.842,25.476 C261.842,28.093 261.17,30.257 259.85,31.905 C258.541,33.546 256.885,34.382 254.928,34.382 L254.928,34.382 Z" id="Fill-19" fill="#099D4C"></path>
                    <path d="M283.373,13.093 C282.854,13.023 282.443,12.991 282.123,12.991 C280.635,12.991 279.236,13.476 277.967,14.429 C276.912,15.218 276.072,16.28 275.467,17.593 L275.217,13.53 L270.803,13.53 L270.815,13.741 C270.943,15.687 271.01,18.218 271.01,21.265 L271.01,37.616 L275.963,37.616 L275.963,24.89 C275.963,22.569 276.541,20.765 277.685,19.515 C278.822,18.28 280.201,17.648 281.783,17.648 C282.365,17.648 282.881,17.694 283.307,17.788 L283.549,17.843 L283.549,13.116 L283.373,13.093" id="Fill-20" fill="#099D4C"></path>
                </g>
            </g>
        </g>
    </g>
</svg>