<?xml version="1.0" encoding="UTF-8" standalone="no"?>
<svg width="84px" height="107px" viewBox="0 0 84 107" version="1.1" xmlns="http://www.w3.org/2000/svg" xmlns:xlink="http://www.w3.org/1999/xlink" xmlns:sketch="http://www.bohemiancoding.com/sketch/ns">
    <!-- Generator: Sketch 3.1.1 (8761) - http://www.bohemiancoding.com/sketch -->
    <title>Icon Suco</title>
    <desc>Created with Sketch.</desc>
    <defs></defs>
    <g id="Page-1" stroke="none" stroke-width="1" fill="none" fill-rule="evenodd" sketch:type="MSPage">
        <g id="CARDÁPIO" sketch:type="MSArtboardGroup" transform="translate(-1017.000000, -486.000000)" fill="#171E2A">
            <g id="Menu-Cardápio" sketch:type="MSLayerGroup" transform="translate(41.000000, 436.000000)">
                <g id="Icon-Suco" transform="translate(977.000000, 50.000000)" sketch:type="MSShapeGroup">
                    <g id="Group">
                        <path d="M55.3849809,22.182248 L45.0473357,13.1630149 C42.6891088,16.2036643 41.3172286,20.0196019 41.3594403,24.1169509 L55.0444732,23.1868864 C55.113419,22.8309011 55.2302047,22.4974287 55.3849809,22.182248 L55.3849809,22.182248 Z" id="Shape"></path>
                        <path d="M57.6784832,20.1729711 L56.7484188,6.4809029 C52.6820251,6.99307152 49.0884024,8.8728992 46.395296,11.6208808 L56.7273129,20.6358927 C57.0185737,20.4389048 57.3393826,20.2883498 57.6784832,20.1729711 L57.6784832,20.1729711 Z" id="Shape"></path>
                        <path d="M60.7261679,20.368552 L69.745401,10.0309068 C66.7061587,7.67267988 62.8874069,6.29798554 58.791465,6.3416043 L59.7229365,20.0280443 C60.0775148,20.095583 60.4123943,20.2123687 60.7261679,20.368552 L60.7261679,20.368552 Z" id="Shape"></path>
                        <path d="M62.7354448,22.6620543 L76.427513,21.7291758 C75.9139374,17.6655962 74.0355167,14.0691594 71.2889422,11.376053 L62.2739302,21.7080699 C62.4709182,22.0007377 62.6200662,22.3229537 62.7354448,22.6620543 L62.7354448,22.6620543 Z" id="Shape"></path>
                        <path d="M62.8803717,24.7065076 C62.8114259,25.0610859 62.6946402,25.3945583 62.5398639,25.709739 L72.8789162,34.7289721 C75.2371431,31.6883227 76.6090233,27.870978 76.5654046,23.7750361 L62.8803717,24.7065076 L62.8803717,24.7065076 Z" id="Shape"></path>
                        <path d="M61.198939,27.2560943 C60.9076782,27.4530822 60.5854623,27.6036372 60.2463616,27.7190159 L61.1778331,41.4110841 C65.2428198,40.8989155 68.8392565,39.0190878 71.532363,36.2725132 L61.198939,27.2560943 L61.198939,27.2560943 Z" id="Shape"></path>
                        <g transform="translate(0.000000, 16.884680)" id="Shape">
                            <path d="M9.55433189,33.9142863 L14.8251661,80.432986 C14.8870766,80.9718887 15.0123046,81.3250599 15.1572314,81.5952148 C15.4273863,82.0525082 16.2772485,82.3634677 17.2734446,82.5900039 C21.0218435,83.4581578 26.2166967,83.6776586 30.0551472,83.6903221 L30.0551472,83.6903221 L30.0664037,83.6903221 L30.076253,83.6903221 L30.076253,83.6903221 C33.9161106,83.6776586 39.1123708,83.4581578 42.8579556,82.5900039 C43.8541517,82.3634677 44.7040139,82.0525082 44.9741688,81.5952148 C45.1219097,81.3250599 45.2471378,80.9718887 45.3076412,80.432986 L50.5461131,34.0507708 C43.6740485,31.4449019 16.6923302,31.4997771 9.55433189,33.9142863 L9.55433189,33.9142863 Z"></path>
                            <path d="M54.9333157,7.05779613 C49.3937337,8.74485704 39.7075558,9.5511005 30.0678107,9.55391462 C20.2746965,9.5511005 10.4295211,8.71953003 4.9391861,6.9775939 C9.0703044,4.93736177 19.5613187,4.0762431 30.0565543,4.12689714 L30.0678107,4.12689714 L30.0776601,4.12689714 C32.7060419,4.11423363 35.3344237,4.15925944 37.8614975,4.26478869 L37.8614975,-0.0182917364 C35.4033695,-0.105529248 32.7975006,-0.146333891 30.0678107,-0.142112721 C12.2122619,-0.18010325 -0.373859793,1.74897141 -0.476574928,6.41758535 L8.80718481,82.8376458 C9.22226652,85.9289493 12.2108548,87.9227485 17.3184705,88.8753259 C21.2948125,89.6210659 26.1224239,90.0164488 30.0579613,90.04459 L30.0579613,90.04459 L30.0692178,90.04459 L30.0790672,90.04459 L30.0790672,90.04459 C34.0160117,90.0150418 38.843623,89.6210659 42.8213721,88.8753259 C47.9261736,87.9227485 50.914762,85.9289493 51.3312507,82.8376458 L60.5305871,7.05779613 L54.9333157,7.05779613 L54.9333157,7.05779613 Z M47.2817417,81.1576202 C47.0734973,82.7954341 46.346049,83.18941 44.9136654,83.7297197 C41.7801502,84.953859 35.5384469,85.5757781 30.1409777,85.6179898 L30.0649966,85.6179898 L29.9876085,85.6179898 C24.5929533,85.5771851 18.35125,84.953859 15.2177349,83.7297197 C13.7839442,83.18941 13.0579029,82.7954341 12.8510656,81.1576202 L4.39746929,11.1495168 C12.8552868,12.991354 21.4045629,14.0030277 30.0523331,14.0438324 L30.0523331,14.0438324 L30.0635895,14.0438324 L30.0734389,14.0438324 L30.0734389,14.0438324 C38.7240232,14.0030277 47.2718923,12.991354 55.7325239,11.1495168 L47.2817417,81.1576202 L47.2817417,81.1576202 Z"></path>
                        </g>
                        <path d="M60.52918,23.9424759 C60.5587282,23.1882935 59.8889692,22.3679795 58.3566845,22.3679795 C56.8201787,22.3679795 56.3263018,23.6568434 54.9333157,23.9424759 C54.9333157,24.516555 56.2376572,24.8500274 57.771349,24.8500274 C59.3050407,24.8500274 60.4700836,24.5067056 60.52918,23.9424759 L60.52918,23.9424759 Z" id="Shape"></path>
                        <path d="M59.3191113,0.00984939651 C46.0984071,-0.185731477 35.2232663,10.3714145 35.0276854,23.5907117 C34.9995442,25.3959654 35.1810546,27.1547862 35.5356328,28.8516965 L39.8946943,28.8516965 C39.4683561,27.1913697 39.2502624,25.4494335 39.2784035,23.6540292 C39.438808,12.7802955 48.383467,4.10016306 59.2543867,4.25916046 C70.1281204,4.42097198 78.8082529,13.364224 78.6492555,24.2365507 C78.488851,35.1102844 69.5427849,43.7918239 58.6718652,43.6314195 C57.7164738,43.6173489 56.779374,43.5329255 55.8647872,43.3879987 L55.8647872,47.6781144 C56.7653035,47.7949001 57.6798903,47.86666 58.6071406,47.8807306 C71.8292519,48.0763114 82.7015786,37.5191654 82.8985665,24.3012753 C83.0941474,11.0805711 72.5398155,0.206837327 59.3191113,0.00984939651 L59.3191113,0.00984939651 Z" id="Shape"></path>
                    </g>
                </g>
            </g>
        </g>
    </g>
</svg>