<?xml version="1.0" encoding="UTF-8" standalone="no"?>
<svg width="28px" height="36px" viewBox="0 0 28 36" version="1.1" xmlns="http://www.w3.org/2000/svg" xmlns:xlink="http://www.w3.org/1999/xlink" xmlns:sketch="http://www.bohemiancoding.com/sketch/ns">
    <!-- Generator: Sketch 3.1.1 (8761) - http://www.bohemiancoding.com/sketch -->
    <title>Icon Location</title>
    <desc>Created with Sketch.</desc>
    <defs></defs>
    <g id="Page-1" stroke="none" stroke-width="1" fill="none" fill-rule="evenodd" sketch:type="MSPage">
        <g id="LOJAS-4" sketch:type="MSArtboardGroup" transform="translate(-1014.000000, -663.000000)" fill="#4DB58E">
            <g id="Modal-2" sketch:type="MSLayerGroup" transform="translate(0.000000, 429.000000)">
                <g id="Icon-Location" transform="translate(1014.000000, 234.000000)" sketch:type="MSShapeGroup">
                    <path d="M20.0118643,25.8463793 L19.0005496,27.0419043 C23.2115975,27.5770353 26.1543573,28.7905207 26.1543573,30.2034139 C26.1543573,32.1118328 20.7938371,33.6587389 14.1820682,33.6587389 C7.57029935,33.6587389 2.20977908,32.1118328 2.20977908,30.2034139 C2.20977908,28.7905207 5.15299945,27.5770353 9.3635868,27.0419043 L8.35227215,25.8463793 C3.64063273,26.6532205 0.368136423,28.4013764 0.368136423,30.4336768 C0.368136423,33.2309105 6.55299787,35.499 14.1820682,35.499 C21.8111386,35.499 27.996,33.2309105 27.996,30.4336768 C27.996,28.4013764 24.7239642,26.6532205 20.0118643,25.8463793 L20.0118643,25.8463793 Z M25.7610683,12.0785001 C25.7610683,5.68363889 20.5764689,0.4995 14.1820682,0.4995 C7.787207,0.4995 2.60306811,5.68363889 2.60306811,12.0785001 C2.60306811,18.4733613 14.1820682,31.3768336 14.1820682,31.3768336 C14.1820682,31.3768336 25.7610683,18.4733613 25.7610683,12.0785001 L25.7610683,12.0785001 Z M14.1820682,2.42910309 C19.5103517,2.42910309 23.8310047,6.80363763 23.8310047,12.1991579 C23.8310047,17.5946781 14.1820682,28.4819684 14.1820682,28.4819684 C14.1820682,28.4819684 4.53313173,17.5942176 4.53313173,12.1986973 C4.53313173,6.8031771 8.85332422,2.42910309 14.1820682,2.42910309 L14.1820682,2.42910309 Z M19.006997,11.1136986 C19.006997,8.4490963 16.847131,6.28876979 14.1820682,6.28876979 C11.5179265,6.28876979 9.35759997,8.4490963 9.35759997,11.1136986 C9.35759997,13.7778403 11.5179265,15.9381668 14.1820682,15.9381668 C16.847131,15.9381668 19.006997,13.7778403 19.006997,11.1136986 L19.006997,11.1136986 Z M11.2872031,11.1136986 C11.2872031,9.51475299 12.5835832,8.2188334 14.1820682,8.2188334 C15.7814743,8.2188334 17.0769334,9.51475299 17.0769334,11.1136986 C17.0769334,12.7121836 15.7814743,14.0081032 14.1820682,14.0085637 C12.5831226,14.0085637 11.2872031,12.7121836 11.2872031,11.1136986 L11.2872031,11.1136986 Z" id="Shape"></path>
                </g>
            </g>
        </g>
    </g>
</svg>