<?xml version="1.0" encoding="UTF-8" standalone="no"?>
<svg width="158px" height="67px" viewBox="0 0 158 67" version="1.1" xmlns="http://www.w3.org/2000/svg" xmlns:xlink="http://www.w3.org/1999/xlink" xmlns:sketch="http://www.bohemiancoding.com/sketch/ns">
    <!-- Generator: Sketch 3.1.1 (8761) - http://www.bohemiancoding.com/sketch -->
    <title>Icon Proteina</title>
    <desc>Created with Sketch.</desc>
    <defs></defs>
    <g id="Page-1" stroke="none" stroke-width="1" fill="none" fill-rule="evenodd" sketch:type="MSPage">
        <g id="CARDÁPIO" sketch:type="MSArtboardGroup" transform="translate(-528.000000, -506.000000)" fill="#171E2A">
            <g id="Menu-Cardápio" sketch:type="MSLayerGroup" transform="translate(41.000000, 436.000000)">
                <g id="Icon-Proteina" transform="translate(566.183288, 103.000000) scale(-1, 1) translate(-566.183288, -103.000000) translate(487.183288, 70.000000)" sketch:type="MSShapeGroup">
                    <path d="M2.97098909,59.1445052 C2.99738627,59.0717604 5.63050451,51.907497 13.2680872,50.0668324 C20.1445514,48.4135408 24.0711313,40.792969 25.6351639,37.0036247 C31.0905801,43.0083796 51.1832301,62.8412652 80.9108491,65.7290144 C105.662601,68.1362069 130.931297,58.496415 156.024012,37.0829827 L157.72003,35.6369037 L147.854086,31.8365375 L157.046902,28.9840585 L155.467471,27.4299644 C141.122806,13.2976282 89.6395151,-27.8076087 25.7913472,32.0591808 C24.4252934,28.2477926 20.8242787,20.3208107 13.9478145,18.3522916 C6.44661718,16.1986038 4.07307116,8.91089457 4.04887375,8.83814974 L2.37485288,3.51234654 L1.48174845,9.02111401 C1.47294939,9.06961056 1.2859694,10.2467541 1.24637364,12.0763968 C1.16058282,16.154516 1.81831244,23.8191756 7.19013762,29.3477826 C9.32610906,31.5455582 11.9922238,33.1701927 15.1444865,34.2415256 C11.952628,35.1805952 9.21612083,36.6928059 6.98995904,38.7935884 C1.38275904,44.0841214 0.399464261,51.7157152 0.311473676,55.7938344 C0.271877913,57.623477 0.410463084,58.8072338 0.417062378,58.8557303 L1.08139129,64.4614909 L2.97098909,59.1445052 L2.97098909,59.1445052 Z M152.009441,27.7672359 L139.78095,31.5609889 L152.596778,36.5010241 C128.65234,56.4132676 104.63751,65.3586771 81.1968185,63.0903611 C51.0490445,60.1761592 31.0927799,39.2234442 26.9836196,34.5435269 C43.8426156,18.6939718 98.0470154,-23.5399121 152.009441,27.7672359 L152.009441,27.7672359 Z M9.08193519,27.4960961 C5.17295347,23.4708822 4.11926622,18.0458815 3.91908764,14.2256758 C5.70529651,16.7342702 8.63758274,19.5801361 13.2196924,20.8939518 C18.952279,22.5406302 22.1419377,29.7313462 23.3364099,33.0687908 C17.1506718,32.7425413 12.3617842,30.8688108 9.08193519,27.4960961 L9.08193519,27.4960961 Z M8.80256508,40.7180197 C12.2231991,37.4885902 17.0890784,35.8176636 23.2814158,35.7559407 C21.9505582,39.0404799 18.466131,46.0901151 12.6499534,47.4876976 C8.01944888,48.6031183 4.9661756,51.323334 3.07437803,53.7525704 C3.43733919,49.9477954 4.72200173,44.5668825 8.80256508,40.7180197 L8.80256508,40.7180197 Z M117.046382,22.3135781 C117.147572,17.5631204 121.08515,13.7847981 125.823443,13.8862 C130.559536,13.9876018 134.332133,17.9312533 134.230944,22.681711 C134.129754,27.4299644 130.192176,31.2082867 125.453883,31.1046804 C120.71779,31.0054829 116.945193,27.0596271 117.046382,22.3135781 L117.046382,22.3135781 Z M131.584627,22.6243969 C131.655019,19.3376533 129.046098,16.6064157 125.76405,16.5336708 C122.484201,16.4631304 119.758692,19.0819442 119.6883,22.3686878 C119.617907,25.6532271 122.226828,28.3844647 125.508877,28.4550052 C128.790926,28.5255456 131.516434,25.9089362 131.584627,22.6243969 L131.584627,22.6243969 Z M127.455669,22.5362214 C127.477666,21.5310201 126.676952,20.6977612 125.676059,20.6757173 C124.672966,20.6536734 123.839256,21.4538665 123.817258,22.4590678 C123.79526,23.4620647 124.595975,24.297528 125.599067,24.3195719 C126.60216,24.3394114 127.435871,23.5392183 127.455669,22.5362214 L127.455669,22.5362214 Z M87.7323192,36.115256 C87.7367187,35.9080435 87.7411182,35.7030354 87.752117,35.4892096 C87.864305,32.6874316 89.21936,31.2281262 90.34124,30.4962691 C93.6430867,28.3337638 99.1578966,29.5395644 102.158375,30.4543858 C101.348862,18.9055931 107.418013,9.18203439 107.692983,8.74997419 C108.084541,8.13274535 108.900654,7.94978108 109.516588,8.34216228 C110.132522,8.73233908 110.319502,9.54575853 109.925744,10.1696005 C109.861951,10.2710024 103.377045,20.6955568 105.000471,32.1936485 C105.070864,32.6587745 104.881684,33.1239005 104.509924,33.4170842 C104.142563,33.7124723 103.645416,33.7852171 103.207663,33.6154792 C100.981501,32.7425413 94.5889855,30.8798328 91.7864853,32.718293 C90.9065795,33.2936385 90.4512282,34.2371168 90.3962341,35.5994291 C90.0464715,43.9540624 93.3175215,47.1592436 94.2238245,47.2562368 C95.303909,47.370865 100.89791,47.6331872 105.033468,41.6240235 C105.332636,41.1919633 105.85618,40.9737288 106.368725,41.0707219 C106.88347,41.1721238 107.292626,41.564505 107.409214,42.0781276 C107.426812,42.148668 109.065636,49.1476023 113.61035,54.2221052 C114.098698,54.7621804 114.054703,55.6020525 113.509161,56.0936312 C112.965819,56.5808011 112.132108,56.534509 111.641561,55.990025 C108.363911,52.3351484 106.494112,47.904327 105.568011,45.1797026 C100.818719,50.302702 95.1455259,50.0205402 93.9466542,49.8970945 C91.2057475,49.6061152 87.5409396,45.1400236 87.7323192,36.115256 L87.7323192,36.115256 Z" id="Shape"></path>
                </g>
            </g>
        </g>
    </g>
</svg>