<?xml version="1.0" encoding="UTF-8" standalone="no"?>
<svg width="71px" height="87px" viewBox="0 0 71 87" version="1.1" xmlns="http://www.w3.org/2000/svg" xmlns:xlink="http://www.w3.org/1999/xlink" xmlns:sketch="http://www.bohemiancoding.com/sketch/ns">
    <!-- Generator: Sketch 3.1.1 (8761) - http://www.bohemiancoding.com/sketch -->
    <title>Shape</title>
    <desc>Created with Sketch.</desc>
    <defs></defs>
    <g id="Page-1" stroke="none" stroke-width="1" fill="none" fill-rule="evenodd" sketch:type="MSPage">
        <g id="CARDÁPIO" sketch:type="MSArtboardGroup" transform="translate(-1251.000000, -495.000000)" fill="#171E2A">
            <g id="Menu-Cardápio" sketch:type="MSLayerGroup" transform="translate(41.000000, 436.000000)">
                <g id="Icon-Sobremesas" transform="translate(1210.000000, 59.000000)" sketch:type="MSShapeGroup">
                    <path d="M68.0888781,36.7072937 L57.4824851,36.7072937 C61.9076782,31.3745491 63.0473941,24.2815765 58.12551,18.3001787 C57.1799679,17.1506134 55.1509922,17.5431822 54.4812333,18.7701356 C52.7688453,21.907872 49.5340221,23.4612625 45.5787859,24.2421789 C46.3470388,22.8801481 46.8521721,21.3577128 47.0336825,19.8057293 C47.0843365,19.5946708 47.1166988,19.3681347 47.1026282,19.1134575 C47.1166988,18.8630014 47.0857435,18.6406864 47.0379036,18.432442 C46.4947798,13.4162851 43.0348275,9.76075194 38.1481197,8.95028731 C38.2142514,8.31570477 38.2381714,7.69941396 38.2606843,7.19568768 C38.3676206,4.54197885 37.3362481,2.15420372 35.1693808,0.610662584 C33.335986,-0.695085982 31.5996781,2.32586463 33.4119671,3.61613558 C34.7936967,4.59966817 34.851386,6.38663011 34.7374144,7.92454302 C34.7120874,8.27067896 34.6473628,8.61118666 34.5727888,8.95169437 C29.9210595,9.87331647 26.7115633,14.4561 26.4597002,19.1134575 C26.3358792,21.4280656 27.101318,23.4809613 28.3972172,25.1412881 C19.0431046,25.4100359 10.9989618,26.8410125 11.4253,36.7072937 L2.26254708,36.7072937 C0.672573076,36.7072937 -0.267340762,38.180482 0.0253270196,39.645228 C1.60545163,47.5641428 3.1869833,55.4816505 4.76710791,63.4019724 C4.69675508,63.7832847 4.78117848,64.112536 4.96268878,64.3770626 C6.35004664,71.3321436 7.73881154,78.2872246 9.1261694,85.2423056 C9.32597144,86.24413 10.3882992,86.9462512 11.3633895,86.9462512 L58.9866286,86.9462512 C59.1132637,86.9462512 59.2272353,86.9265524 59.344021,86.9110748 C59.3960821,86.9082607 59.4467362,86.9012254 59.4987973,86.8955972 C59.5044255,86.8941901 59.5114608,86.8927831 59.5184961,86.891376 C60.3092619,86.7956962 61.0141973,86.2877487 61.2238487,85.2423056 C64.2574628,70.0432798 67.291077,54.8442539 70.3260981,39.645228 C70.6173589,38.180482 69.6788521,36.7072937 68.0888781,36.7072937 L68.0888781,36.7072937 Z M42.4621554,19.1134575 C42.0667725,26.4371873 31.496963,26.4371873 31.1015801,19.1134575 C30.7076042,11.7869135 42.0681796,11.8263111 42.4621554,19.1134575 L42.4621554,19.1134575 Z M61.6501869,59.4495503 C60.0362929,63.1740292 57.7216847,66.5875486 53.2416164,66.9111717 C43.6243842,67.6076647 35.3114935,57.9651055 26.8888525,54.6697789 C20.4065425,52.1328557 13.0884409,53.2922704 8.38324349,57.8652045 C7.28433225,52.3593918 6.18542101,46.8535792 5.08650977,41.3477666 L65.2635083,41.3477666 C64.0590678,47.3826325 62.8560344,53.4160914 61.6501869,59.4495503 L61.6501869,59.4495503 Z M16.1079845,36.2696991 C16.1572314,34.8851554 16.667993,33.6258397 17.4038836,32.4734603 C20.1406088,28.1805305 28.3156079,29.6691964 32.515672,29.7775398 C40.5921771,29.9857841 50.5316253,30.3248848 56.2935222,24.1647908 C57.7582682,28.4492783 55.1397358,33.2220144 51.2056054,36.3794495 C51.0747491,36.4849788 50.9678128,36.5933221 50.872133,36.7058867 L16.1192409,36.7058867 C16.1107986,36.5103058 16.1051704,36.3428661 16.1079845,36.2696991 L16.1079845,36.2696991 Z M9.265468,62.2805482 C9.41883718,62.025871 9.55532167,61.8063702 9.64115213,61.6853633 C11.003183,59.7830227 13.0054246,58.3140556 15.1694777,57.4684145 C24.6122348,53.7847402 33.8242347,62.8264862 41.3730936,66.9421269 C46.5862384,69.7829743 53.1487506,71.9315498 58.6995891,68.833211 C59.1414049,68.5855691 59.5522654,68.3013436 59.9462413,67.9946053 C58.995071,72.7659344 58.0424936,77.5344493 57.0913233,82.3043714 L13.2629159,82.3043714 C11.9304333,75.6292946 10.5979506,68.955625 9.265468,62.2805482 L9.265468,62.2805482 Z" id="Shape"></path>
                </g>
            </g>
        </g>
    </g>
</svg>