<?xml version="1.0" encoding="UTF-8" standalone="no"?>
<svg width="37px" height="37px" viewBox="0 0 37 37" version="1.1" xmlns="http://www.w3.org/2000/svg" xmlns:xlink="http://www.w3.org/1999/xlink" xmlns:sketch="http://www.bohemiancoding.com/sketch/ns">
    <!-- Generator: Sketch 3.1.1 (8761) - http://www.bohemiancoding.com/sketch -->
    <title>Icon Inteira 2</title>
    <desc>Created with Sketch.</desc>
    <defs></defs>
    <g id="Page-1" stroke="none" stroke-width="1" fill="none" fill-rule="evenodd" sketch:type="MSPage">
        <g id="CARDÃPIO-11" sketch:type="MSArtboardGroup" transform="translate(-161.000000, -1743.000000)" fill="#171E2A">
            <g id="Icon-Inteira-2-+-Inteira" sketch:type="MSLayerGroup" transform="translate(161.000000, 1743.000000)">
                <g id="Icon-Inteira-2" sketch:type="MSShapeGroup">
                    <path d="M18.3600448,0.328359047 C8.22202323,0.328359047 0,8.53887624 0,18.6658633 C0,28.7928503 8.22202323,37.0033675 18.3600448,37.0033675 C28.5013465,37.0033675 36.7200896,28.7928503 36.7200896,18.6658633 C36.7200896,8.53887624 28.5017565,0.328359047 18.3600448,0.328359047 L18.3600448,0.328359047 Z M18.3600448,34.0696944 C9.85716154,34.0696944 2.93734476,27.1601654 2.93734476,18.6662728 C2.93734476,10.1723801 9.85716154,3.26244162 18.3600448,3.26244162 C26.8662081,3.26244162 33.7827448,10.1719706 33.7827448,18.6658633 C33.7827448,27.1597559 26.8662081,34.0696944 18.3600448,34.0696944 L18.3600448,34.0696944 Z" id="Shape"></path>
                    <path d="M5.87468951,18.6658633 C5.87468951,11.7907324 11.7651527,6.1965242 19,6.1965242 L19,31.1352024 C11.7651527,31.1352024 5.87468951,25.5409941 5.87468951,18.6658633 Z" id="Shape"></path>
                </g>
            </g>
        </g>
    </g>
</svg>