<?xml version="1.0" encoding="UTF-8" standalone="no"?>
<svg width="84px" height="107px" viewBox="0 0 84 107" version="1.1" xmlns="http://www.w3.org/2000/svg" xmlns:xlink="http://www.w3.org/1999/xlink" xmlns:sketch="http://www.bohemiancoding.com/sketch/ns">
    <!-- Generator: Sketch 3.1.1 (8761) - http://www.bohemiancoding.com/sketch -->
    <title>Icon Sucoicn</title>
    <desc>Created with Sketch.</desc>
    <defs></defs>
    <g id="Page-1" stroke="none" stroke-width="1" fill="none" fill-rule="evenodd" sketch:type="MSPage">
        <g id="CARDÁPIO" sketch:type="MSArtboardGroup" transform="translate(-1017.000000, -486.000000)" fill="#FFFFFF">
            <g id="Menu-Cardápio" sketch:type="MSLayerGroup" transform="translate(41.000000, 436.000000)">
                <g id="Icon-Suco" transform="translate(976.000000, 50.000000)" sketch:type="MSShapeGroup">
                    <g id="Group">
                        <path d="M56.3849809,22.182248 L46.0473357,13.1630149 C43.6891088,16.2036643 42.3172286,20.0196019 42.3594403,24.1169509 L56.0444732,23.1868864 C56.113419,22.8309011 56.2302047,22.4974287 56.3849809,22.182248 L56.3849809,22.182248 Z" id="Shape"></path>
                        <path d="M58.6784832,20.1729711 L57.7484188,6.4809029 C53.6820251,6.99307152 50.0884024,8.8728992 47.395296,11.6208808 L57.7273129,20.6358927 C58.0185737,20.4389048 58.3393826,20.2883498 58.6784832,20.1729711 L58.6784832,20.1729711 Z" id="Shape"></path>
                        <path d="M61.7261679,20.368552 L70.745401,10.0309068 C67.7061587,7.67267988 63.8874069,6.29798554 59.791465,6.3416043 L60.7229365,20.0280443 C61.0775148,20.095583 61.4123943,20.2123687 61.7261679,20.368552 L61.7261679,20.368552 Z" id="Shape"></path>
                        <path d="M63.7354448,22.6620543 L77.427513,21.7291758 C76.9139374,17.6655962 75.0355167,14.0691594 72.2889422,11.376053 L63.2739302,21.7080699 C63.4709182,22.0007377 63.6200662,22.3229537 63.7354448,22.6620543 L63.7354448,22.6620543 Z" id="Shape"></path>
                        <path d="M63.8803717,24.7065076 C63.8114259,25.0610859 63.6946402,25.3945583 63.5398639,25.709739 L73.8789162,34.7289721 C76.2371431,31.6883227 77.6090233,27.870978 77.5654046,23.7750361 L63.8803717,24.7065076 L63.8803717,24.7065076 Z" id="Shape"></path>
                        <path d="M62.198939,27.2560943 C61.9076782,27.4530822 61.5854623,27.6036372 61.2463616,27.7190159 L62.1778331,41.4110841 C66.2428198,40.8989155 69.8392565,39.0190878 72.532363,36.2725132 L62.198939,27.2560943 L62.198939,27.2560943 Z" id="Shape"></path>
                        <g transform="translate(0.000000, 16.884680)" id="Shape">
                            <path d="M10.5543319,33.9142863 L15.8251661,80.432986 C15.8870766,80.9718887 16.0123046,81.3250599 16.1572314,81.5952148 C16.4273863,82.0525082 17.2772485,82.3634677 18.2734446,82.5900039 C22.0218435,83.4581578 27.2166967,83.6776586 31.0551472,83.6903221 L31.0551472,83.6903221 L31.0664037,83.6903221 L31.076253,83.6903221 L31.076253,83.6903221 C34.9161106,83.6776586 40.1123708,83.4581578 43.8579556,82.5900039 C44.8541517,82.3634677 45.7040139,82.0525082 45.9741688,81.5952148 C46.1219097,81.3250599 46.2471378,80.9718887 46.3076412,80.432986 L51.5461131,34.0507708 C44.6740485,31.4449019 17.6923302,31.4997771 10.5543319,33.9142863 L10.5543319,33.9142863 Z"></path>
                            <path d="M55.9333157,7.05779613 C50.3937337,8.74485704 40.7075558,9.5511005 31.0678107,9.55391462 C21.2746965,9.5511005 11.4295211,8.71953003 5.9391861,6.9775939 C10.0703044,4.93736177 20.5613187,4.0762431 31.0565543,4.12689714 L31.0678107,4.12689714 L31.0776601,4.12689714 C33.7060419,4.11423363 36.3344237,4.15925944 38.8614975,4.26478869 L38.8614975,-0.0182917364 C36.4033695,-0.105529248 33.7975006,-0.146333891 31.0678107,-0.142112721 C13.2122619,-0.18010325 0.626140207,1.74897141 0.523425072,6.41758535 L9.80718481,82.8376458 C10.2222665,85.9289493 13.2108548,87.9227485 18.3184705,88.8753259 C22.2948125,89.6210659 27.1224239,90.0164488 31.0579613,90.04459 L31.0579613,90.04459 L31.0692178,90.04459 L31.0790672,90.04459 L31.0790672,90.04459 C35.0160117,90.0150418 39.843623,89.6210659 43.8213721,88.8753259 C48.9261736,87.9227485 51.914762,85.9289493 52.3312507,82.8376458 L61.5305871,7.05779613 L55.9333157,7.05779613 L55.9333157,7.05779613 Z M48.2817417,81.1576202 C48.0734973,82.7954341 47.346049,83.18941 45.9136654,83.7297197 C42.7801502,84.953859 36.5384469,85.5757781 31.1409777,85.6179898 L31.0649966,85.6179898 L30.9876085,85.6179898 C25.5929533,85.5771851 19.35125,84.953859 16.2177349,83.7297197 C14.7839442,83.18941 14.0579029,82.7954341 13.8510656,81.1576202 L5.39746929,11.1495168 C13.8552868,12.991354 22.4045629,14.0030277 31.0523331,14.0438324 L31.0523331,14.0438324 L31.0635895,14.0438324 L31.0734389,14.0438324 L31.0734389,14.0438324 C39.7240232,14.0030277 48.2718923,12.991354 56.7325239,11.1495168 L48.2817417,81.1576202 L48.2817417,81.1576202 Z"></path>
                        </g>
                        <path d="M61.52918,23.9424759 C61.5587282,23.1882935 60.8889692,22.3679795 59.3566845,22.3679795 C57.8201787,22.3679795 57.3263018,23.6568434 55.9333157,23.9424759 C55.9333157,24.516555 57.2376572,24.8500274 58.771349,24.8500274 C60.3050407,24.8500274 61.4700836,24.5067056 61.52918,23.9424759 L61.52918,23.9424759 Z" id="Shape"></path>
                        <path d="M60.3191113,0.00984939651 C47.0984071,-0.185731477 36.2232663,10.3714145 36.0276854,23.5907117 C35.9995442,25.3959654 36.1810546,27.1547862 36.5356328,28.8516965 L40.8946943,28.8516965 C40.4683561,27.1913697 40.2502624,25.4494335 40.2784035,23.6540292 C40.438808,12.7802955 49.383467,4.10016306 60.2543867,4.25916046 C71.1281204,4.42097198 79.8082529,13.364224 79.6492555,24.2365507 C79.488851,35.1102844 70.5427849,43.7918239 59.6718652,43.6314195 C58.7164738,43.6173489 57.779374,43.5329255 56.8647872,43.3879987 L56.8647872,47.6781144 C57.7653035,47.7949001 58.6798903,47.86666 59.6071406,47.8807306 C72.8292519,48.0763114 83.7015786,37.5191654 83.8985665,24.3012753 C84.0941474,11.0805711 73.5398155,0.206837327 60.3191113,0.00984939651 L60.3191113,0.00984939651 Z" id="Shape"></path>
                    </g>
                </g>
            </g>
        </g>
    </g>
</svg>