<?xml version="1.0" encoding="UTF-8" standalone="no"?>
<svg width="158px" height="67px" viewBox="0 0 158 67" version="1.1" xmlns="http://www.w3.org/2000/svg" xmlns:xlink="http://www.w3.org/1999/xlink" xmlns:sketch="http://www.bohemiancoding.com/sketch/ns">
    <!-- Generator: Sketch 3.1.1 (8761) - http://www.bohemiancoding.com/sketch -->
    <title>Icon Proteinaicn</title>
    <desc>Created with Sketch.</desc>
    <defs></defs>
    <g id="Page-1" stroke="none" stroke-width="1" fill="none" fill-rule="evenodd" sketch:type="MSPage">
        <g id="CARDÁPIO" sketch:type="MSArtboardGroup" transform="translate(-528.000000, -506.000000)" fill="#FFFFFF">
            <g id="Menu-Cardápio" sketch:type="MSLayerGroup" transform="translate(41.000000, 436.000000)">
                <g id="Icon-Proteina" transform="translate(566.091644, 103.362303) scale(-1, 1) translate(-566.091644, -103.362303) translate(488.000000, 71.000000)" sketch:type="MSShapeGroup">
                    <path d="M1.97098909,58.1445052 C1.99738627,58.0717604 4.63050451,50.907497 12.2680872,49.0668324 C19.1445514,47.4135408 23.0711313,39.792969 24.6351639,36.0036247 C30.0905801,42.0083796 50.1832301,61.8412652 79.9108491,64.7290144 C104.662601,67.1362069 129.931297,57.496415 155.024012,36.0829827 L156.72003,34.6369037 L146.854086,30.8365375 L156.046902,27.9840585 L154.467471,26.4299644 C140.122806,12.2976282 88.6395151,-28.8076087 24.7913472,31.0591808 C23.4252934,27.2477926 19.8242787,19.3208107 12.9478145,17.3522916 C5.44661718,15.1986038 3.07307116,7.91089457 3.04887375,7.83814974 L1.37485288,2.51234654 L0.48174845,8.02111401 C0.472949392,8.06961056 0.2859694,9.24675415 0.246373637,11.0763968 C0.160582817,15.154516 0.818312436,22.8191756 6.19013762,28.3477826 C8.32610906,30.5455582 10.9922238,32.1701927 14.1444865,33.2415256 C10.952628,34.1805952 8.21612083,35.6928059 5.98995904,37.7935884 C0.382759043,43.0841214 -0.600535739,50.7157152 -0.688526324,54.7938344 C-0.728122087,56.623477 -0.589536916,57.8072338 -0.582937622,57.8557303 L0.0813912907,63.4614909 L1.97098909,58.1445052 L1.97098909,58.1445052 Z M151.009441,26.7672359 L138.78095,30.5609889 L151.596778,35.5010241 C127.65234,55.4132676 103.63751,64.3586771 80.1968185,62.0903611 C50.0490445,59.1761592 30.0927799,38.2234442 25.9836196,33.5435269 C42.8426156,17.6939718 97.0470154,-24.5399121 151.009441,26.7672359 L151.009441,26.7672359 Z M8.08193519,26.4960961 C4.17295347,22.4708822 3.11926622,17.0458815 2.91908764,13.2256758 C4.70529651,15.7342702 7.63758274,18.5801361 12.2196924,19.8939518 C17.952279,21.5406302 21.1419377,28.7313462 22.3364099,32.0687908 C16.1506718,31.7425413 11.3617842,29.8688108 8.08193519,26.4960961 L8.08193519,26.4960961 Z M7.80256508,39.7180197 C11.2231991,36.4885902 16.0890784,34.8176636 22.2814158,34.7559407 C20.9505582,38.0404799 17.466131,45.0901151 11.6499534,46.4876976 C7.01944888,47.6031183 3.9661756,50.323334 2.07437803,52.7525704 C2.43733919,48.9477954 3.72200173,43.5668825 7.80256508,39.7180197 L7.80256508,39.7180197 Z M116.046382,21.3135781 C116.147572,16.5631204 120.08515,12.7847981 124.823443,12.8862 C129.559536,12.9876018 133.332133,16.9312533 133.230944,21.681711 C133.129754,26.4299644 129.192176,30.2082867 124.453883,30.1046804 C119.71779,30.0054829 115.945193,26.0596271 116.046382,21.3135781 L116.046382,21.3135781 Z M130.584627,21.6243969 C130.655019,18.3376533 128.046098,15.6064157 124.76405,15.5336708 C121.484201,15.4631304 118.758692,18.0819442 118.6883,21.3686878 C118.617907,24.6532271 121.226828,27.3844647 124.508877,27.4550052 C127.790926,27.5255456 130.516434,24.9089362 130.584627,21.6243969 L130.584627,21.6243969 Z M126.455669,21.5362214 C126.477666,20.5310201 125.676952,19.6977612 124.676059,19.6757173 C123.672966,19.6536734 122.839256,20.4538665 122.817258,21.4590678 C122.79526,22.4620647 123.595975,23.297528 124.599067,23.3195719 C125.60216,23.3394114 126.435871,22.5392183 126.455669,21.5362214 L126.455669,21.5362214 Z M86.7323192,35.115256 C86.7367187,34.9080435 86.7411182,34.7030354 86.752117,34.4892096 C86.864305,31.6874316 88.21936,30.2281262 89.34124,29.4962691 C92.6430867,27.3337638 98.1578966,28.5395644 101.158375,29.4543858 C100.348862,17.9055931 106.418013,8.18203439 106.692983,7.74997419 C107.084541,7.13274535 107.900654,6.94978108 108.516588,7.34216228 C109.132522,7.73233908 109.319502,8.54575853 108.925744,9.16960054 C108.861951,9.27100243 102.377045,19.6955568 104.000471,31.1936485 C104.070864,31.6587745 103.881684,32.1239005 103.509924,32.4170842 C103.142563,32.7124723 102.645416,32.7852171 102.207663,32.6154792 C99.9815014,31.7425413 93.5889855,29.8798328 90.7864853,31.718293 C89.9065795,32.2936385 89.4512282,33.2371168 89.3962341,34.5994291 C89.0464715,42.9540624 92.3175215,46.1592436 93.2238245,46.2562368 C94.303909,46.370865 99.8979104,46.6331872 104.033468,40.6240235 C104.332636,40.1919633 104.85618,39.9737288 105.368725,40.0707219 C105.88347,40.1721238 106.292626,40.564505 106.409214,41.0781276 C106.426812,41.148668 108.065636,48.1476023 112.61035,53.2221052 C113.098698,53.7621804 113.054703,54.6020525 112.509161,55.0936312 C111.965819,55.5808011 111.132108,55.534509 110.641561,54.990025 C107.363911,51.3351484 105.494112,46.904327 104.568011,44.1797026 C99.8187188,49.302702 94.1455259,49.0205402 92.9466542,48.8970945 C90.2057475,48.6061152 86.5409396,44.1400236 86.7323192,35.115256 L86.7323192,35.115256 Z" id="Shape"></path>
                </g>
            </g>
        </g>
    </g>
</svg>