<?xml version="1.0" encoding="UTF-8" standalone="no"?>
<svg width="35px" height="35px" viewBox="0 0 35 35" version="1.1" xmlns="http://www.w3.org/2000/svg" xmlns:xlink="http://www.w3.org/1999/xlink" xmlns:sketch="http://www.bohemiancoding.com/sketch/ns">
    <!-- Generator: Sketch 3.1.1 (8761) - http://www.bohemiancoding.com/sketch -->
    <title>Icon Phone</title>
    <desc>Created with Sketch.</desc>
    <defs></defs>
    <g id="Page-1" stroke="none" stroke-width="1" fill="none" fill-rule="evenodd" sketch:type="MSPage">
        <g id="LOJAS-4" sketch:type="MSArtboardGroup" transform="translate(-1010.000000, -727.000000)" fill="#4DB58E">
            <g id="Modal-2" sketch:type="MSLayerGroup" transform="translate(0.000000, 429.000000)">
                <g id="Icon-Phone" transform="translate(1010.000000, 298.000000)" sketch:type="MSShapeGroup">
                    <path d="M16.16125,28.9420833 C15.728125,28.9420833 15.3052083,28.8502083 14.905625,28.6752083 L12.726875,27.71125 C9.5025,26.2835417 9.22104167,20.0885417 12.0852083,13.60625 C14.5089583,8.12291667 18.388125,4.29333333 21.5220833,4.29333333 C22.0266667,4.29333333 22.5079167,4.388125 22.946875,4.58354167 L25.125625,5.5475 C25.8854167,5.88291667 26.4702083,6.49541667 26.7691667,7.26979167 C27.0710417,8.045625 27.0491667,8.89 26.7152083,9.65270833 L26.075,11.1066667 C25.40125,12.630625 23.5054167,13.37 21.9727083,12.69625 L19.7939583,11.73375 C19.2383333,11.4858333 17.5685417,12.6758333 16.3304167,15.4802083 C15.7777083,16.73 15.4525,18.0395833 15.4422917,19.070625 C15.4320833,19.963125 15.6595833,20.4647917 15.89,20.5639583 L18.06875,21.525 C19.6379167,22.2235417 20.3495833,24.0610417 19.656875,25.62875 L19.0166667,27.0797917 C18.510625,28.2129167 17.3935417,28.9420833 16.16125,28.9420833 L16.16125,28.9420833 Z M21.520625,5.75166667 C19.0297917,5.75166667 15.5458333,9.38 13.418125,14.1954167 C10.714375,20.3116667 11.1825,25.4333333 13.3145833,26.376875 L15.4933333,27.3408333 C16.3114583,27.7025 17.31625,27.3072917 17.6735417,26.4964583 L18.31375,25.0439583 C18.68125,24.21125 18.3035417,23.2341667 17.4679167,22.8622917 L15.290625,21.90125 C14.424375,21.5191667 13.95625,20.5085417 13.97375,19.0560417 C13.9883333,17.815 14.3470833,16.3391667 14.9858333,14.8939583 C16.008125,12.5810417 17.84125,10.24625 19.630625,10.24625 C19.8945833,10.24625 20.1454167,10.29875 20.3758333,10.4008333 L22.553125,11.3633333 C23.3727083,11.7279167 24.3760417,11.3297917 24.7333333,10.5189583 L25.375,9.06354167 C25.554375,8.65958333 25.5660417,8.21041667 25.405625,7.79916667 C25.2495833,7.38645833 24.9389583,7.06270833 24.5320833,6.88479167 L22.3533333,5.92229167 C22.1025,5.80708333 21.8210417,5.75166667 21.520625,5.75166667 L21.520625,5.75166667 Z" id="Shape"></path>
                    <path d="M17.4985417,35 C14.7029167,35 12.985,34.3889583 12.2470833,33.1347917 C11.2233333,31.3891667 12.4789583,29.1447917 13.3947917,27.5041667 L13.5275,27.2679167 C13.7229167,26.9164583 14.16625,26.7866667 14.5191667,26.9864583 C14.8720833,27.1833333 14.9989583,27.6252083 14.8020833,27.978125 L14.6679167,28.2202083 C13.9664583,29.4758333 12.9047917,31.3760417 13.505625,32.3997917 C13.9460417,33.1464583 15.3270833,33.5416667 17.4985417,33.5416667 C26.3433333,33.5416667 33.5402083,26.3433333 33.5402083,17.5 C33.5402083,8.65666667 26.3433333,1.45833333 17.4985417,1.45833333 C8.65375,1.45833333 1.456875,8.65666667 1.456875,17.5 C1.456875,22.1185417 3.44895833,26.5183333 6.92416667,29.561875 C7.2275,29.8302083 7.25666667,30.288125 6.99125,30.5929167 C6.724375,30.8947917 6.26354167,30.9254167 5.96166667,30.6585417 C2.17291667,27.3335417 0,22.5370833 0,17.5 C0,7.85166667 7.85020833,0 17.5,0 C27.1497917,0 35,7.85166667 35,17.5 C34.9985417,27.1497917 27.1483333,35 17.4985417,35 L17.4985417,35 Z" id="Shape"></path>
                </g>
            </g>
        </g>
    </g>
</svg>