<?xml version="1.0" encoding="UTF-8" standalone="no"?>
<svg width="36px" height="34px" viewBox="0 0 36 34" version="1.1" xmlns="http://www.w3.org/2000/svg" xmlns:xlink="http://www.w3.org/1999/xlink" xmlns:sketch="http://www.bohemiancoding.com/sketch/ns">
    <!-- Generator: Sketch 3.1.1 (8761) - http://www.bohemiancoding.com/sketch -->
    <title>Icon Info</title>
    <desc>Created with Sketch.</desc>
    <defs></defs>
    <g id="Page-1" stroke="none" stroke-width="1" fill="none" fill-rule="evenodd" sketch:type="MSPage">
        <g id="LOJAS-4" sketch:type="MSArtboardGroup" transform="translate(-1012.000000, -854.000000)">
            <g id="Modal-2" sketch:type="MSLayerGroup" transform="translate(0.000000, 429.000000)">
                <g id="Icon-Info" transform="translate(1012.000000, 425.000000)">
                    <g id="miu" sketch:type="MSShapeGroup">
                        <g id="circle_info_more-information_detail_outline_stroke">
                            <g id="path-1-link" transform="translate(18.000000, 16.500000) scale(-1, 1) translate(-18.000000, -16.500000) " fill="#4DB58E">
                                <path d="M18,0 C27.9411259,0 36,6.93129494 36,15.4814815 C36,24.0316681 27.9411259,30.962963 18,30.962963 C15.1829689,30.962963 12.5170814,30.4063843 10.1428838,29.4141085 L1.25363991,33.4625109 L3.4579486,24.6070091 C1.28351307,22.0481094 0,18.8937136 0,15.4814815 C0,6.93129494 8.05887401,0 18,0 L18,0 Z M18,1.62962963 C8.96261277,1.62962963 1.63636364,7.83131459 1.63636364,15.4814815 C1.63636364,18.7562889 2.97885463,21.7656707 5.22338022,24.1367795 L3.38398881,31.0124964 L9.9422173,27.5403283 C12.3208507,28.6817008 15.0705278,29.3333333 18,29.3333333 C27.0373873,29.3333333 34.3636364,23.1316484 34.3636364,15.4814815 C34.3636364,7.83131459 27.0373873,1.62962963 18,1.62962963 L18,1.62962963 Z" id="path-1"></path>
                            </g>
                            <path d="M18,0 C8.05887409,0 0,6.93129494 0,15.4814815 C0,24.0316681 8.05887409,30.962963 18,30.962963 C20.8170311,30.962963 23.4829186,30.4063843 25.8571162,29.4141085 L34.7463601,33.4625109 L32.5420514,24.6070091 C34.7164869,22.0481094 36,18.8937136 36,15.4814815 C36,6.93129494 27.941126,0 18,0 L18,0 Z M18,1.62962963 C27.0373872,1.62962963 34.3636364,7.83131459 34.3636364,15.4814815 C34.3636364,18.7562889 33.0211454,21.7656707 30.7766198,24.1367795 L32.6160112,31.0124964 L26.0577827,27.5403283 C23.6791493,28.6817008 20.9294722,29.3333333 18,29.3333333 C8.96261269,29.3333333 1.63636364,23.1316484 1.63636364,15.4814815 C1.63636364,7.83131459 8.96261269,1.62962963 18,1.62962963 L18,1.62962963 Z M18.4090909,9.77777778 C19.5387644,9.77777778 20.4545455,8.86576525 20.4545455,7.74074074 C20.4545455,6.61571623 19.5387644,5.7037037 18.4090909,5.7037037 C17.2794175,5.7037037 16.3636364,6.61571623 16.3636364,7.74074074 C16.3636364,8.86576525 17.2794175,9.77777778 18.4090909,9.77777778 L18.4090909,9.77777778 L18.4090909,9.77777778 Z M13.9090909,13.037037 L16.3636364,13.037037 L16.3636364,22.8148148 L13.9090909,22.8148148 L13.9090909,24.4444444 L22.9090909,24.4444444 L22.9090909,22.8148148 L20.4545455,22.8148148 L20.4545455,11.4074074 L13.9090909,11.4074074 L13.9090909,13.037037 L13.9090909,13.037037 Z" id="path-1"></path>
                        </g>
                    </g>
                    <text id="i" sketch:type="MSTextLayer" font-family=".Helvetica Neue DeskInterface" font-size="18" font-weight="normal" fill="#5BC0A0">
                        <tspan x="16" y="22">i</tspan>
                    </text>
                </g>
            </g>
        </g>
    </g>
</svg>