<?xml version="1.0" encoding="UTF-8" standalone="no"?>
<svg width="35px" height="35px" viewBox="0 0 35 35" version="1.1" xmlns="http://www.w3.org/2000/svg" xmlns:xlink="http://www.w3.org/1999/xlink" xmlns:sketch="http://www.bohemiancoding.com/sketch/ns">
    <!-- Generator: Sketch 3.1.1 (8761) - http://www.bohemiancoding.com/sketch -->
    <title>Icon Clock</title>
    <desc>Created with Sketch.</desc>
    <defs></defs>
    <g id="Page-1" stroke="none" stroke-width="1" fill="none" fill-rule="evenodd" sketch:type="MSPage">
        <g id="LOJAS-4" sketch:type="MSArtboardGroup" transform="translate(-1010.000000, -790.000000)" fill="#4DB58E">
            <g id="Modal-2" sketch:type="MSLayerGroup" transform="translate(0.000000, 429.000000)">
                <g id="Icon-Clock" transform="translate(1010.000000, 361.000000)" sketch:type="MSShapeGroup">
                    <path d="M17.5,34.9534574 C7.87574468,34.9534574 0.0465425532,27.1242553 0.0465425532,17.5 C0.0465425532,7.87574468 7.87574468,0.0465425532 17.5,0.0465425532 C27.1242553,0.0465425532 34.9534574,7.87574468 34.9534574,17.5 C34.9534574,27.1242553 27.1242553,34.9534574 17.5,34.9534574 L17.5,34.9534574 Z M17.5,1.44281915 C8.64611702,1.44281915 1.44281915,8.64611702 1.44281915,17.5 C1.44281915,26.353883 8.64611702,33.5571809 17.5,33.5571809 C26.353883,33.5571809 33.5571809,26.353883 33.5571809,17.5 C33.5571809,8.64611702 26.353883,1.44281915 17.5,1.44281915 L17.5,1.44281915 Z" id="Shape"></path>
                    <rect id="Rectangle-path" transform="translate(29.738844, 10.241755) rotate(60.289232) translate(-29.738844, -10.241755) " x="29.0407363" y="9.48779888" width="1.39621489" height="1.50791208"></rect>
                    <rect id="Rectangle-path" x="30.9042553" y="16.7553191" width="1.50797872" height="1.3962766"></rect>
                    <rect id="Rectangle-path" transform="translate(17.359675, 31.472894) rotate(89.724982) translate(-17.359675, -31.472894) " x="16.6051185" y="30.7747473" width="1.50911313" height="1.39629268"></rect>
                    <rect id="Rectangle-path" transform="translate(10.426518, 29.832450) rotate(30.005690) translate(-10.426518, -29.832450) " x="9.72835984" y="29.0784397" width="1.3963157" height="1.50802095"></rect>
                    <rect id="Rectangle-path" transform="translate(29.877942, 24.489537) rotate(30.100945) translate(-29.877942, -24.489537) " x="29.12399" y="23.7914338" width="1.50790352" height="1.39620696"></rect>
                    <rect id="Rectangle-path" transform="translate(24.765456, 29.753141) rotate(59.991445) translate(-24.765456, -29.753141) " x="24.0115112" y="29.0550433" width="1.50789037" height="1.39619479"></rect>
                    <rect id="Rectangle-path" transform="translate(24.481504, 5.138226) rotate(30.013517) translate(-24.481504, -5.138226) " x="23.7835578" y="4.38461527" width="1.39589229" height="1.50722112"></rect>
                    <rect id="Rectangle-path" transform="translate(5.050380, 24.683786) rotate(60.284256) translate(-5.050380, -24.683786) " x="4.35242391" y="23.9297922" width="1.39591175" height="1.50798682"></rect>
                    <rect id="Rectangle-path" x="2.60638298" y="16.7553191" width="1.50797872" height="1.3962766"></rect>
                    <rect id="Rectangle-path" transform="translate(5.165570, 10.418191) rotate(30.105902) translate(-5.165570, -10.418191) " x="4.41176622" y="9.71986628" width="1.50760681" height="1.39664933"></rect>
                    <rect id="Rectangle-path" transform="translate(10.324781, 5.215640) rotate(60.002137) translate(-10.324781, -5.215640) " x="9.57092936" y="4.51745682" width="1.50770378" height="1.3963668"></rect>
                    <path d="M18.1981383,16.6458511 L18.1981383,2.82234043 C18.1981383,2.43659574 17.8857447,2.12420213 17.5,2.12420213 C17.1142553,2.12420213 16.8018617,2.43659574 16.8018617,2.82234043 L16.8018617,16.6462234 C16.5970745,16.8141489 16.4533511,17.0509574 16.4094149,17.3235106 L7.82994681,22.2771277 C7.49632979,22.47 7.38164894,22.8963298 7.57452128,23.2306915 C7.7037234,23.4548404 7.93829787,23.5799468 8.17957447,23.5799468 C8.29797872,23.5799468 8.41824468,23.5501596 8.52808511,23.486117 L17.1068085,18.5332447 C17.2293085,18.5801596 17.361117,18.6088298 17.5,18.6088298 C18.111383,18.6088298 18.6088298,18.111383 18.6088298,17.5003723 C18.6088298,17.1548404 18.446117,16.8495213 18.1981383,16.6458511 L18.1981383,16.6458511 Z" id="Shape"></path>
                </g>
            </g>
        </g>
    </g>
</svg>