<?xml version="1.0" encoding="UTF-8" standalone="no"?>
<svg width="132px" height="65px" viewBox="0 0 132 65" version="1.1" xmlns="http://www.w3.org/2000/svg" xmlns:xlink="http://www.w3.org/1999/xlink" xmlns:sketch="http://www.bohemiancoding.com/sketch/ns">
    <!-- Generator: Sketch 3.1.1 (8761) - http://www.bohemiancoding.com/sketch -->
    <title>Icon Sanduba</title>
    <desc>Created with Sketch.</desc>
    <defs></defs>
    <g id="Page-1" stroke="none" stroke-width="1" fill="none" fill-rule="evenodd" sketch:type="MSPage">
        <g id="CARDÁPIO" sketch:type="MSArtboardGroup" transform="translate(-767.000000, -507.000000)" fill="#171E2A">
            <g id="Menu-Cardápio" sketch:type="MSLayerGroup" transform="translate(41.000000, 436.000000)">
                <g id="Icon-Sanduba" transform="translate(727.000000, 72.000000)" sketch:type="MSShapeGroup">
                    <path d="M3.68747297,25.7793645 C3.41072072,6.40951402 11.4866937,4.95109346 33.0987432,3.95369159 L40.5799054,17.5658131 C40.9315991,18.1893364 41.5789279,18.5378972 42.2469099,18.5378972 C42.5696892,18.5378972 42.8942387,18.4601776 43.190464,18.2876636 C44.1115946,17.7689439 44.4379144,16.601972 43.9139144,15.6828785 L37.2517973,3.95369159 C45.6464189,3.45028037 47.7117342,2.87915888 59.4875721,3.85595327 L66.7374189,16.6190467 C67.0891126,17.2425701 67.7364414,17.5911308 68.4044234,17.5911308 C68.7272027,17.5911308 69.0517523,17.5134112 69.3479775,17.3408972 C70.2691081,16.8221776 70.5954279,15.6552056 70.0714279,14.7361121 L63.8241441,3.73937383 C64.3215901,3.73348598 64.8066441,3.69815888 65.3082207,3.69815888 C71.5413423,3.69815888 71.4026712,3.52270093 86.7721577,4.55484112 C86.8111036,4.6778972 86.8258559,4.80271963 86.8913559,4.91988785 L94.3772387,18.0968972 C94.7289324,18.7204206 95.3762613,19.0689813 96.0442432,19.0689813 C96.3670225,19.0689813 96.6915721,18.9912617 96.9877973,18.8187477 C97.9089279,18.300028 98.2352477,17.1330561 97.7112477,16.2139626 L91.7053108,5.64173832 C107.856667,7.7136729 127.008041,7.48345794 126.928968,25.6521869 C126.774955,27.9431495 120.735973,29.1036449 108.974297,29.1036449 C103.9485,29.1036449 97.9921306,28.925243 91.6858378,28.7303551 C83.8382297,28.4901308 74.9438018,28.2175234 65.5814324,28.2175234 C56.7283108,28.2175234 48.1696441,28.4265421 40.6159009,28.6131869 C34.2358468,28.769215 28.3815631,28.9128785 23.2637117,28.9128785 C16.041009,28.9128785 11.1798468,28.6131869 7.96090541,27.9631682 C5.28248649,27.4303178 3.69927477,26.6119065 3.68747297,25.7793645 L3.68747297,25.7793645 Z M118.088829,36.1631776 C116.26545,38.0991028 113.373419,39.081785 109.503018,39.081785 C108.017171,39.081785 104.01105,39.0676542 99.9653919,39.0429252 L109.44932,33.3411308 C109.636378,33.2280841 109.778,33.0767664 109.91195,32.9166168 C113.769959,32.8983645 117.153536,32.7505794 120.041437,32.4102617 C119.774126,33.5483832 119.227113,34.9549907 118.088829,36.1631776 L118.088829,36.1631776 Z M9.96308108,32.1535514 C13.0339099,32.532729 17.0152477,32.7152523 22.3142568,32.7358598 C22.3449414,32.7564673 22.361464,32.7894393 22.3921486,32.8076916 L30.9118694,37.9289439 C26.0524775,37.879486 21.8699189,37.8488692 19.9255721,37.8488692 C13.3608198,37.8488692 10.9042748,34.493972 9.96308108,32.1535514 L9.96308108,32.1535514 Z M29.6130811,32.6787477 C33.0910721,32.6234019 36.7826757,32.5350841 40.7044144,32.436757 C44.645036,32.3401963 48.8689009,32.2401028 53.2532703,32.1641495 L41.9211802,40.0785981 L29.6130811,32.6787477 L29.6130811,32.6787477 Z M59.807991,32.2542336 C59.8776216,32.2047757 59.9171577,32.1311776 59.978527,32.0758318 C61.8302297,32.0593458 63.6907838,32.045215 65.5737613,32.045215 C67.5594144,32.045215 69.5120225,32.0634673 71.4504685,32.0840748 C71.5879595,32.3525607 71.7691171,32.6027944 72.0340676,32.7876729 L80.3401757,38.5877944 L51.2658468,38.2203925 L59.807991,32.2542336 L59.807991,32.2542336 Z M77.8612072,32.1888785 C82.6669009,32.2895607 87.2796351,32.4267477 91.5589685,32.5562804 C95.505491,32.675215 99.2832477,32.7859065 102.823198,32.855972 L89.9208784,40.6126262 L77.8612072,32.1888785 L77.8612072,32.1888785 Z M122.739919,51.1371589 C121.722604,52.8416916 114.579563,59.3224486 65.2114459,59.3224486 C16.0569414,59.3224486 8.91626126,53.7625514 7.89658559,52.0580187 C7.63753604,51.6252617 7.71365766,41.1919907 8.1101982,40.4636636 C8.6282973,39.4957009 9.15642793,38.6237103 9.53467568,38.0207944 C11.7752477,40.0862523 15.0744414,41.6736168 19.9232117,41.6736168 C22.6529685,41.6736168 29.7647342,41.7330841 37.020482,41.8231682 L37.0429054,41.8231682 C37.1355495,41.8231682 37.2158018,41.7843084 37.3037252,41.7719439 L41.0077207,43.9993178 C41.3122072,44.1818411 41.6550495,44.2719252 41.9961216,44.2719252 C42.3826306,44.2719252 42.7667793,44.154757 43.0978198,43.9251308 L45.9609369,41.9256168 C46.0553514,41.9421028 46.1397342,41.9850841 46.2406396,41.9850841 L85.9194775,42.4873178 L88.7418784,44.4579813 C89.0705586,44.6899626 89.4570676,44.8047757 89.8435766,44.8047757 C90.1846486,44.8047757 90.5280811,44.7146916 90.8319775,44.5321682 L94.2314865,42.4896729 C99.4402117,42.5408972 107.273658,42.571514 109.501248,42.571514 C114.376572,42.571514 118.123644,41.2178972 120.633887,38.556 C120.726532,38.4576729 120.790261,38.3511028 120.876414,38.2521869 C120.892937,38.2580748 120.91123,38.2563084 120.927752,38.2621963 C121.425198,38.8238972 122.08905,39.6464299 122.576464,40.5631682 C122.922847,41.1919907 122.997198,50.7044019 122.739919,51.1371589 L122.739919,51.1371589 Z M123.036144,34.225486 C123.407901,33.1815701 123.607351,32.217729 123.699995,31.4487757 C127.998212,30.4478411 130.54032,28.6514579 130.752162,25.435514 C130.752162,11.7085794 127.154383,7.93211215 106.703041,3.87714953 C105.711689,3.68049533 103.675288,3.47736449 102.328113,3.24891589 C89.2617477,1.0356729 75.3680766,-0.126588785 65.3023198,-0.126588785 C7.41035135,-0.126588785 -0.145752252,3.03283178 -0.145752252,25.7799533 C-0.145752252,29.3568224 3.38534685,30.765785 5.73272523,31.3769439 C5.94633784,32.4579533 6.37828378,33.6655514 7.06455856,34.9025888 C6.99256757,34.9785421 6.90641441,35.0315327 6.84681532,35.1198505 C6.84681532,35.1198505 5.73095495,36.7849346 4.68885586,38.7379346 C4.31886937,39.4250467 3.18648649,51.6405701 4.6086036,54.015729 C5.95695946,56.2760748 10.0616261,63.1466075 65.4297793,63.1466075 C120.58432,63.1466075 124.686626,56.2760748 126.039113,54.015729 C127.457099,51.6388037 126.327077,39.4250467 125.915784,38.6619813 C125.866216,38.5695421 125.802486,38.4877009 125.749378,38.3976168 L123.036144,34.225486 Z" id="Shape"></path>
                </g>
            </g>
        </g>
    </g>
</svg>