<?xml version="1.0" encoding="UTF-8" standalone="no"?>
<svg width="198px" height="97px" viewBox="0 0 198 97" version="1.1" xmlns="http://www.w3.org/2000/svg" xmlns:xlink="http://www.w3.org/1999/xlink" xmlns:sketch="http://www.bohemiancoding.com/sketch/ns">
    <!-- Generator: Sketch 3.1.1 (8761) - http://www.bohemiancoding.com/sketch -->
    <title>logo-yelp-colored</title>
    <desc>Created with Sketch.</desc>
    <defs></defs>
    <g id="Page-1" stroke="none" stroke-width="1" fill="none" fill-rule="evenodd" sketch:type="MSPage">
        <g id="logo-yelp-colored" sketch:type="MSLayerGroup">
            <path d="M18.452,73.389 L18.585,73.389 L24.525,52.118 C25.193,49.742 26.596,47.344 29.198,47.942 C32.632,48.73 32.632,50.07 32.632,51.227 C32.632,51.997 32.365,52.963 31.897,54.184 L22.19,85.92 C19.854,92.344 17.183,95.687 11.042,95.687 C6.704,95.687 4.901,93.633 4.901,91.381 C4.901,88.876 7.801,87.616 10.403,87.616 L11.405,87.616 C12.673,87.616 14.238,86.941 14.973,84.049 L1.547,56.666 C0.746,54.417 0.346,53.39 0.346,52.298 C0.346,49.727 0.714,49.12 3.544,48.048 C5.519,47.302 7.951,49.462 8.551,51.585 L18.452,73.389" id="Fill-1" fill="#1A1918" sketch:type="MSShapeGroup"></path>
            <path d="M95.785,52.353 C95.785,49.386 97.078,47.804 99.849,47.804 C102.497,47.804 103.914,49.386 103.914,52.353 L103.914,53.87 L104.035,53.87 C105.516,49.785 109.148,47.804 113.52,47.804 C121.03,47.804 127.619,53.675 127.619,66.135 C127.619,75.367 123.247,84.006 113.765,84.006 C109.64,84.006 106.56,82.222 104.9,79.125 L104.776,79.125 L104.776,91.981 C104.776,95.148 102.99,96.796 100.28,96.796 C97.571,96.796 95.785,95.148 95.785,91.981 L95.785,52.353 L95.785,52.353 Z M115.485,54.439 C110.054,54.439 108.01,60.012 108.01,66.103 C108.01,71.603 109.799,78.058 115.485,77.983 C121.423,77.983 122.894,71.091 122.894,66.103 C122.894,59.792 120.465,54.585 115.485,54.439 L115.485,54.439 Z" id="Fill-2" fill="#1A1918" sketch:type="MSShapeGroup"></path>
            <path d="M76.479,40.903 C76.479,37.684 78.251,36.008 80.937,36.008 C83.623,36.008 85.394,37.684 85.394,40.903 L85.394,81.127 C85.394,84.345 83.623,86.022 80.937,86.022 C78.251,86.022 76.479,84.345 76.479,81.127 L76.479,40.903" id="Fill-3" fill="#1A1918" sketch:type="MSShapeGroup"></path>
            <path d="M45.468,69.082 C45.468,74.305 48.335,78.103 53.211,78.103 C59.522,78.103 59.522,73.218 62.907,73.218 C64.916,73.218 66.349,75.253 66.349,77.086 C66.349,83.057 58.261,85.838 53.211,85.838 C41.509,85.838 37.092,76.476 37.092,67.861 C37.092,56.328 43,48.596 52.925,48.596 C62.565,48.596 68.071,56.669 68.071,64.809 C68.071,68.198 67.21,69.082 64.399,69.082 L45.468,69.082 L45.468,69.082 Z M59.261,63.74 C58.771,58.683 55.691,54.979 51.692,54.979 C47.197,54.979 44.49,58.378 43.504,63.74 L59.261,63.74 L59.261,63.74 Z" id="Fill-4" fill="#1A1918" sketch:type="MSShapeGroup"></path>
            <path d="M196.648,17.677 C196.319,18.466 195.865,19.144 195.286,19.714 C194.708,20.282 194.032,20.734 193.261,21.066 C192.488,21.398 191.659,21.564 190.772,21.564 C189.885,21.564 189.056,21.398 188.284,21.066 C187.512,20.734 186.837,20.282 186.258,19.714 C185.679,19.144 185.221,18.466 184.882,17.677 C184.545,16.89 184.376,16.041 184.376,15.129 C184.376,14.238 184.545,13.402 184.882,12.624 C185.221,11.846 185.679,11.172 186.258,10.603 C186.837,10.031 187.512,9.581 188.284,9.25 C189.056,8.916 189.885,8.75 190.772,8.75 C191.659,8.75 192.488,8.916 193.261,9.25 C194.032,9.581 194.708,10.031 195.286,10.603 C195.865,11.172 196.319,11.846 196.648,12.624 C196.975,13.402 197.139,14.238 197.139,15.129 C197.139,16.041 196.975,16.89 196.648,17.677 L196.648,17.677 Z M195.707,12.964 C195.427,12.282 195.051,11.689 194.577,11.185 C194.104,10.683 193.546,10.283 192.9,9.991 C192.254,9.695 191.554,9.549 190.801,9.549 C190.049,9.549 189.35,9.695 188.703,9.991 C188.056,10.283 187.492,10.683 187.011,11.185 C186.527,11.689 186.147,12.282 185.866,12.964 C185.587,13.649 185.447,14.369 185.447,15.129 C185.447,15.907 185.587,16.638 185.866,17.323 C186.147,18.005 186.527,18.603 187.011,19.116 C187.492,19.628 188.063,20.032 188.718,20.326 C189.373,20.62 190.078,20.768 190.832,20.768 C191.565,20.768 192.254,20.62 192.9,20.326 C193.546,20.032 194.104,19.632 194.577,19.128 C195.051,18.627 195.427,18.034 195.707,17.349 C195.987,16.668 196.126,15.935 196.126,15.157 C196.126,14.38 195.987,13.649 195.707,12.964 L195.707,12.964 Z M192.597,18.859 C192.403,18.614 192.22,18.005 192.046,17.036 C191.949,16.544 191.771,16.198 191.51,15.997 C191.249,15.798 190.869,15.699 190.366,15.699 L189.498,15.699 L189.498,18.859 L188.572,18.859 L188.572,11.712 C188.899,11.673 189.205,11.637 189.484,11.597 C189.765,11.561 190.087,11.542 190.454,11.542 C190.955,11.542 191.385,11.595 191.743,11.697 C192.099,11.802 192.384,11.931 192.597,12.083 C193.039,12.405 193.261,12.89 193.261,13.536 C193.261,14.028 193.121,14.418 192.842,14.703 C192.562,14.987 192.229,15.186 191.844,15.3 L191.844,15.357 C192.499,15.47 192.914,16.05 193.087,17.094 C193.184,17.645 193.271,18.049 193.348,18.303 C193.426,18.561 193.502,18.745 193.579,18.859 L192.597,18.859 L192.597,18.859 Z M191.858,12.723 C191.577,12.429 191.07,12.282 190.339,12.282 C190.146,12.282 189.979,12.286 189.847,12.297 C189.711,12.306 189.596,12.32 189.498,12.337 L189.498,15.017 L190.397,15.017 C190.898,15.017 191.338,14.915 191.714,14.716 C192.089,14.517 192.276,14.17 192.276,13.677 C192.276,13.336 192.137,13.017 191.858,12.723 L191.858,12.723 Z" id="Fill-5" fill="#B83A2B" sketch:type="MSShapeGroup"></path>
            <path d="M163.756,45.151 C162.566,46.35 163.572,48.531 163.572,48.531 L172.524,63.479 C172.524,63.479 173.994,65.45 175.268,65.45 C176.547,65.45 177.811,64.399 177.811,64.399 L184.888,54.283 C184.888,54.283 185.601,53.007 185.617,51.889 C185.643,50.299 183.246,49.863 183.246,49.863 L166.49,44.482 C166.49,44.482 164.849,44.047 163.756,45.151" id="Fill-6" fill="#B83A2B" sketch:type="MSShapeGroup"></path>
            <path d="M162.906,37.616 C163.764,39.07 166.129,38.647 166.129,38.647 L182.847,33.76 C182.847,33.76 185.125,32.834 185.45,31.598 C185.77,30.363 185.074,28.872 185.074,28.872 L177.085,19.461 C177.085,19.461 176.393,18.271 174.956,18.151 C173.372,18.017 172.397,19.934 172.397,19.934 L162.951,34.798 C162.951,34.798 162.116,36.279 162.906,37.616" id="Fill-7" fill="#B83A2B" sketch:type="MSShapeGroup"></path>
            <path d="M155.008,31.821 C156.977,31.336 157.289,28.476 157.289,28.476 L157.155,4.675 C157.155,4.675 156.858,1.739 155.539,0.943 C153.47,-0.312 152.856,0.343 152.264,0.431 L138.384,5.588 C138.384,5.588 137.024,6.038 136.316,7.172 C135.306,8.779 137.344,11.132 137.344,11.132 L151.771,30.796 C151.771,30.796 153.194,32.269 155.008,31.821" id="Fill-8" fill="#B83A2B" sketch:type="MSShapeGroup"></path>
            <path d="M151.58,41.454 C151.63,39.617 149.376,38.515 149.376,38.515 L134.457,30.978 C134.457,30.978 132.246,30.066 131.173,30.701 C130.351,31.187 129.622,32.066 129.551,32.844 L128.579,44.805 C128.579,44.805 128.434,46.877 128.971,47.82 C129.731,49.158 132.234,48.227 132.234,48.227 L149.651,44.377 C150.328,43.922 151.515,43.88 151.58,41.454" id="Fill-9" fill="#B83A2B" sketch:type="MSShapeGroup"></path>
            <path d="M155.911,47.908 C154.416,47.141 152.627,48.73 152.627,48.73 L140.965,61.569 C140.965,61.569 139.51,63.532 139.88,64.738 C140.229,65.868 140.806,66.43 141.622,66.825 L153.334,70.523 C153.334,70.523 154.754,70.817 155.829,70.506 C157.356,70.064 157.074,67.674 157.074,67.674 L157.339,50.29 C157.339,50.29 157.279,48.616 155.911,47.908" id="Fill-10" fill="#B83A2B" sketch:type="MSShapeGroup"></path>
        </g>
    </g>
</svg>