<?xml version="1.0" encoding="UTF-8" standalone="no"?>
<svg width="596px" height="75px" viewBox="0 0 596 75" version="1.1" xmlns="http://www.w3.org/2000/svg" xmlns:xlink="http://www.w3.org/1999/xlink" xmlns:sketch="http://www.bohemiancoding.com/sketch/ns">
    <!-- Generator: Sketch 3.1.1 (8761) - http://www.bohemiancoding.com/sketch -->
    <title>foursquare-wordmark</title>
    <desc>Created with Sketch.</desc>
    <defs></defs>
    <g id="Page-1" stroke="none" stroke-width="1" fill="none" fill-rule="evenodd" sketch:type="MSPage">
        <g id="foursquare-wordmark" sketch:type="MSLayerGroup" transform="translate(1.000000, 1.000000)" fill="#0732A2">
            <path d="M170.323,0.8 L156.088,0.8 C155.095,0.8 154.289,1.545 154.289,2.524 L154.289,38.892 C154.289,44.795 151.867,47.935 146.412,47.935 C140.954,47.935 138.532,44.795 138.532,38.892 L138.532,2.524 C138.532,1.527 137.909,0.8 136.758,0.8 L122.509,0.8 C121.551,0.8 120.724,1.521 120.724,2.524 L120.724,42.476 C120.724,54.828 129.676,64.76 146.235,64.76 C162.972,64.76 172.104,54.828 172.104,42.476 L172.104,2.524 C172.104,1.594 171.295,0.8 170.323,0.8" id="Fill-1" sketch:type="MSShapeGroup"></path>
            <path d="M273.441,26.272 L263.143,22.688 C260.106,21.613 259.741,19.912 259.741,18.926 C259.741,17.317 261.265,15.709 264.308,15.709 C267.616,15.709 272.375,16.624 277.027,20.212 C277.682,20.723 278.602,20.646 279.112,19.991 L287.105,9.9 C287.615,9.248 287.549,8.265 286.914,7.729 C280.117,1.958 271.752,-0.048 264.037,-0.05 C249.173,-0.05 240.319,9.169 240.319,19.197 C240.319,27.071 244.879,34.325 254.646,37.634 L263.771,40.771 C268.246,42.291 268.968,43.457 268.968,45.337 C268.968,47.038 267.173,49.003 263.594,49.003 C258.537,49.003 252.602,45.966 248.604,42.653 C247.963,42.121 247.068,42.2 246.566,42.856 L238.36,53.634 C237.856,54.288 237.937,55.291 238.558,55.829 C244.487,60.968 253.296,64.768 264.4,64.768 C278.363,64.768 288.482,56.706 288.482,44.537 C288.482,36.205 283.288,29.667 273.441,26.272" id="Fill-2" sketch:type="MSShapeGroup"></path>
            <path d="M208.196,27.543 L198.899,27.543 L198.899,16.636 L208.196,16.636 C213.385,16.636 215.437,18.959 215.437,22.088 C215.437,25.216 213.385,27.543 208.196,27.543 L208.196,27.543 Z M222.326,40.148 C229.922,36.391 233.854,30.493 233.854,21.728 C233.854,10.643 224.919,0.8 209.811,0.8 L182.553,0.8 C181.658,0.8 180.932,1.716 180.932,2.612 L180.932,61.941 C180.932,62.838 181.658,63.563 182.553,63.563 L197.277,63.563 C198.17,63.563 198.899,62.838 198.899,61.941 L198.899,42.744 L204.715,42.744 L215.119,62.137 C215.543,62.927 216.615,63.563 217.508,63.563 L234.382,63.563 C235.276,63.563 235.639,62.935 235.189,62.16 L222.326,40.148 L222.326,40.148 Z" id="Fill-3" sketch:type="MSShapeGroup"></path>
            <path d="M44.375,0.8 L1.624,0.8 C0.334,0.8 -0.382,1.773 -0.382,2.662 L-0.382,61.729 C-0.382,62.708 0.353,63.563 1.405,63.563 L15.812,63.563 C16.699,63.563 17.421,62.609 17.421,61.729 L17.421,42.663 L35.692,42.663 C36.579,42.663 37.452,41.956 37.631,41.085 L40.39,27.986 C40.562,27.214 40.159,26.364 39.088,26.364 L17.421,26.364 L17.421,16.845 L41.468,16.845 C42.362,16.845 43.229,16.139 43.415,15.273 L46.028,2.918 C46.253,1.838 45.657,0.8 44.375,0.8" id="Fill-4" sketch:type="MSShapeGroup"></path>
            <path d="M589.854,16.841 C590.741,16.841 591.608,16.139 591.793,15.273 L594.408,2.91 C594.633,1.838 594.355,0.8 592.865,0.8 L549.885,0.8 C548.667,0.8 547.999,1.773 547.999,2.66 L547.999,61.729 C547.999,62.708 548.732,63.563 549.784,63.563 L588.895,63.563 C589.783,63.563 590.648,62.861 590.834,61.995 L593.449,49.631 C593.682,48.56 593.396,47.519 591.914,47.519 L565.939,47.519 L565.939,40.328 L584.07,40.328 C584.957,40.328 585.832,39.618 586.01,38.754 L588.771,25.649 C588.942,24.883 588.538,24.031 587.466,24.031 L565.939,24.031 L565.939,16.841 L589.854,16.841" id="Fill-5" sketch:type="MSShapeGroup"></path>
            <path d="M450.054,36.402 L444.251,36.402 L450.054,17.209 L455.871,36.402 L450.054,36.402 L450.054,36.402 Z M461.854,2.236 C461.615,1.442 460.742,0.8 459.923,0.8 L440.36,0.8 C439.533,0.8 438.666,1.442 438.434,2.236 L420.414,62.026 C420.17,62.814 420.639,63.563 421.473,63.563 L437.547,63.563 C438.374,63.563 439.228,62.814 439.452,62.021 L442,52.993 L458.136,52.993 L460.908,62.026 C461.146,62.814 462.014,63.563 462.84,63.563 L478.823,63.563 C479.643,63.563 480.125,62.814 479.881,62.026 L461.854,2.236 L461.854,2.236 Z" id="Fill-6" sketch:type="MSShapeGroup"></path>
            <path d="M415.411,0.8 L401.176,0.8 C400.184,0.8 399.382,1.545 399.382,2.524 L399.382,38.892 C399.382,44.795 396.96,47.935 391.502,47.935 C386.041,47.935 383.619,44.795 383.619,38.892 L383.619,2.524 C383.619,1.527 382.996,0.8 381.852,0.8 L367.599,0.8 C366.639,0.8 365.811,1.521 365.811,2.524 L365.811,42.476 C365.811,54.828 374.766,64.76 391.322,64.76 C408.064,64.76 417.19,54.828 417.19,42.476 L417.19,2.524 C417.19,1.594 416.385,0.8 415.411,0.8" id="Fill-7" sketch:type="MSShapeGroup"></path>
            <path d="M513.586,27.543 L504.281,27.543 L504.281,16.636 L513.586,16.636 C518.767,16.636 520.818,18.959 520.818,22.088 C520.818,25.216 518.767,27.543 513.586,27.543 L513.586,27.543 Z M527.707,40.148 C535.305,36.391 539.235,30.493 539.235,21.728 C539.235,10.643 530.303,0.8 515.194,0.8 L487.935,0.8 C487.042,0.8 486.313,1.716 486.313,2.612 L486.313,61.941 C486.313,62.838 487.042,63.563 487.935,63.563 L502.659,63.563 C503.554,63.563 504.281,62.838 504.281,61.941 L504.281,42.744 L510.099,42.744 L520.501,62.137 C520.925,62.927 521.997,63.563 522.89,63.563 L539.76,63.563 C540.658,63.563 541.023,62.935 540.565,62.16 L527.707,40.148 L527.707,40.148 Z" id="Fill-8" sketch:type="MSShapeGroup"></path>
            <path d="M325.707,48.23 C317.508,48.23 311.956,41.114 311.956,32.347 C311.956,23.572 317.521,16.464 325.707,16.464 C333.887,16.464 339.452,23.572 339.452,32.347 C339.452,41.114 333.901,48.23 325.707,48.23 L325.707,48.23 Z M358.372,55.793 C356.374,56.544 352.669,57.541 348.267,56.548 L348.247,56.544 C348.884,55.984 349.498,55.409 350.088,54.8 C358.537,45.83 360.934,32.406 356.798,20.971 C352.51,9.115 341.187,1.064 328.48,0.039 C315.742,-0.987 302.851,5.253 296.702,16.371 C290.27,27.992 291.474,43.325 300.229,53.503 C307.793,62.292 319.672,65.958 330.797,64.407 C330.949,64.555 331.114,64.714 331.292,64.88 C337.454,70.697 347.473,73.929 356.018,73.929 L359.545,56.767 C359.623,56.144 359.166,55.496 358.372,55.793 L358.372,55.793 Z" id="Fill-9" sketch:type="MSShapeGroup"></path>
            <path d="M80.62,48.23 C72.426,48.23 66.875,41.114 66.875,32.347 C66.875,23.572 72.439,16.464 80.62,16.464 C88.8,16.464 94.365,23.572 94.365,32.347 C94.365,41.114 88.812,48.23 80.62,48.23 L80.62,48.23 Z M83.393,0.039 C70.66,-0.987 57.761,5.253 51.614,16.371 C45.181,27.992 46.387,43.325 55.142,53.503 C67.603,67.989 91.777,68.578 105,54.8 C113.45,45.834 115.847,32.406 111.71,20.971 C107.422,9.115 96.099,1.064 83.393,0.039 L83.393,0.039 Z" id="Fill-10" sketch:type="MSShapeGroup"></path>
        </g>
    </g>
</svg>