<?xml version="1.0" encoding="UTF-8" standalone="no"?>
<svg width="137px" height="88px" viewBox="0 0 137 88" version="1.1" xmlns="http://www.w3.org/2000/svg" xmlns:xlink="http://www.w3.org/1999/xlink" xmlns:sketch="http://www.bohemiancoding.com/sketch/ns">
    <!-- Generator: Sketch 3.1.1 (8761) - http://www.bohemiancoding.com/sketch -->
    <title>Icon Saladaicn</title>
    <desc>Created with Sketch.</desc>
    <defs></defs>
    <g id="Page-1" stroke="none" stroke-width="1" fill="none" fill-rule="evenodd" sketch:type="MSPage">
        <g id="CARDÁPIO" sketch:type="MSArtboardGroup" transform="translate(-312.000000, -495.000000)" fill="#FFFFFF">
            <g id="Menu-Cardápio" sketch:type="MSLayerGroup" transform="translate(41.000000, 436.000000)">
                <g id="Icon-Salada" transform="translate(272.000000, 59.000000)" sketch:type="MSShapeGroup">
                    <path d="M127.057215,31.9401858 C124.524513,29.4074839 121.569694,27.2968989 118.192758,25.8898423 C117.348524,25.6084309 116.50429,25.1863139 115.800762,25.0456083 C115.378645,24.9049026 115.237939,24.6234913 114.815822,24.2013743 C114.675117,24.0606686 114.534411,23.7792573 114.393705,23.6385516 C113.26806,22.0907893 112.001709,20.8244383 110.313241,19.698793 C109.469007,19.1359704 108.624773,18.7138534 107.780539,18.2917364 C107.358422,18.1510307 106.795599,18.010325 106.373482,17.8696194 C105.81066,17.7289137 105.247837,17.5882081 104.966426,17.3067967 C104.82572,17.1660911 104.544309,16.6032684 104.403603,16.3218571 C104.262897,16.0404457 104.122192,15.7590344 103.981486,15.4776231 C103.559369,14.7740948 102.996546,13.9298608 102.293018,13.2263325 C99.9010217,10.6936305 96.5240858,8.7237512 92.8657385,8.02022287 C90.8958592,7.59810588 88.6445686,7.45740022 86.6746893,7.73881154 C85.549044,7.87951721 84.4233987,8.02022287 83.438459,8.3016342 C83.1570477,8.44233987 82.8756364,8.44233987 82.594225,8.58304553 C81.8906967,8.86445686 81.327874,9.00516252 80.7650514,8.7237512 C80.4836401,8.58304553 80.2022287,8.16092854 80.0615231,7.73881154 C79.9208174,7.45740022 79.7801117,7.17598889 79.4987004,6.89457756 C78.9358777,6.19104924 78.2323494,5.48752091 77.5288211,4.78399259 C76.2624701,3.65834728 74.7147078,2.67340762 72.8855342,1.82917364 C69.0864812,0.140705664 64.5839,-0.140705664 60.5034357,0.703528322 C60.2220244,0.844233987 59.7999074,0.984939651 59.3777904,1.12564532 C58.8149677,1.26635098 58.2521451,1.54776231 57.6893224,1.54776231 C57.1264998,1.54776231 56.5636771,1.26635098 56.0008544,1.12564532 C55.4380318,0.984939651 54.8752091,0.703528322 54.4530921,0.703528322 C52.4832128,0.281411329 50.2319222,0.281411329 48.1213372,0.422116993 C44.3222843,0.844233987 40.8046427,2.3919963 38.1312351,4.78399259 C36.8648841,5.90963791 35.7392388,7.31669455 34.8950048,8.86445686 C34.7542991,9.14586819 34.6135935,9.56798518 34.4728878,9.99010217 C34.3321821,10.4122192 34.1914765,10.8343362 34.0507708,10.9750418 C33.9100651,11.2564532 33.2065368,11.5378645 32.6437141,11.8192758 C32.2215972,11.9599815 31.7994802,12.2413928 31.5180688,12.3820985 C31.0959518,12.6635098 30.5331292,13.0856268 30.1110122,13.3670381 L29.8296009,13.5077438 C29.8296009,13.5077438 29.5481895,13.5077438 29.4074839,13.3670381 C28.2818386,13.0856268 27.0154876,12.9449211 25.8898423,12.9449211 C23.919963,12.8042155 21.809378,13.0856268 19.9802043,13.6484495 C16.3218571,14.6333891 13.0856268,16.6032684 10.9750418,19.276676 C10.2715135,20.12091 9.84939651,21.1058497 9.42727952,21.9500837 C9.14586819,22.5129063 9.00516252,22.9350233 8.7237512,23.497846 C9.00516252,23.6385516 8.44233987,23.919963 7.87951721,24.0606686 C7.59810588,24.2013743 7.31669455,24.3420799 7.03528322,24.4827856 C6.19104924,25.0456083 5.34681525,25.6084309 4.64328693,26.1712536 C1.82917364,28.7039555 0.140705664,32.0808915 -0.140705664,35.5985331 C-0.140705664,37.1462954 3.35287353e-14,38.6940577 0.562822658,40.1011144 C0.844233987,40.8046427 1.12564532,41.3674653 1.40705664,41.930288 L1.54776231,42.2116993 C1.68846797,42.6338163 1.68846797,42.6338163 1.68846797,42.9152277 C1.54776231,43.4780503 1.40705664,43.9001673 1.26635098,44.46299 C1.12564532,45.0258126 0.844233987,45.7293409 0.844233987,46.4328693 C0.562822658,48.1213372 0.703528322,49.6690995 0.984939651,51.2168619 C0.984939651,51.7796845 1.12564532,52.3425072 1.12564532,53.0460355 L1.12564532,53.7495638 C1.12564532,54.7345035 1.26635098,55.7194431 1.40705664,56.7043828 C2.11058497,61.4883754 4.3618756,65.9909566 7.73881154,69.7900096 C11.2564532,73.7297682 15.8997401,77.1067041 22.3722006,80.2022287 C25.4677253,81.749991 28.9853669,83.1570477 32.7844198,84.5641043 C34.7542991,85.2676326 36.7241784,85.971161 38.975469,86.6746893 L39.2568804,86.815395 C39.6789974,86.9561006 40.24182,87.0968063 40.663937,87.237512 C41.3674653,87.237512 42.0709937,87.3782176 42.9152277,87.3782176 L45.1665183,87.3782176 L47.2771033,87.3782176 L87.8003346,87.3782176 L90.1923309,87.3782176 L95.1170292,87.3782176 C96.6647915,87.237512 98.0718481,86.6746893 99.6196104,86.2525723 C100.041727,86.1118666 100.60455,85.971161 101.026667,85.6897496 C105.107131,84.282693 108.624773,82.8756364 111.861003,81.4685797 C125.087336,75.4182361 132.544736,67.9608359 134.514615,58.5335564 C134.936732,56.5636771 135.077438,54.5937978 135.077438,51.7796845 C135.077438,44.1815786 132.122619,37.0055897 127.057215,31.9401858 L127.057215,31.9401858 Z M132.685442,53.6088582 L132.685442,53.6088582 C132.263325,62.7547263 127.901449,74.4332965 97.5090255,84.0012817 L97.0869085,84.1419873 C96.1019688,84.4233987 95.3984405,84.70481 94.4135008,84.70481 L41.7895823,84.70481 C40.8046427,84.70481 40.1011144,84.4233987 39.1161747,84.1419873 L38.6940577,84.0012817 C34.3321821,82.594225 30.5331292,81.1871684 27.1561932,79.7801117 C13.5077438,74.0111795 6.05034357,66.6944849 4.08046427,57.6893224 C3.65834728,56.2822658 3.51764161,54.8752091 3.37693595,53.4681525 L132.685442,53.6088582 L132.685442,53.6088582 Z M11.2564532,24.3420799 L11.3971588,23.919963 C13.5077438,17.8696194 20.12091,15.1962118 25.7491366,15.1962118 C26.5933706,15.1962118 27.5783102,15.1962118 28.4225442,15.3369174 C25.3270196,19.276676 24.6234913,24.3420799 26.5933706,28.8446612 C28.4225442,32.6437141 31.9401858,35.5985331 36.4427671,37.0055897 C36.3020614,37.0055897 36.1613558,37.1462954 36.0206501,37.1462954 C35.8799444,37.1462954 35.4578274,37.4277067 35.0357104,37.7091181 C34.6135935,37.9905294 34.0507708,38.2719407 33.6286538,38.4126464 C33.4879481,38.1312351 33.2065368,37.7091181 32.9251255,37.4277067 C32.7844198,37.1462954 32.5030085,36.8648841 32.3623028,36.7241784 C31.7994802,36.0206501 31.2366575,35.4578274 30.5331292,34.8950048 C27.8597216,32.6437141 24.4827856,31.0959518 20.965144,30.6738348 C20.2616157,30.5331292 19.5580874,30.5331292 18.854559,30.5331292 C12.2413928,30.5331292 6.19104924,34.0507708 2.95481895,39.819703 L2.81411329,39.1161747 C1.9698793,36.3020614 2.3919963,33.2065368 4.08046427,30.6738348 C4.92469826,29.2667782 6.19104924,28.0004272 7.73881154,27.0154876 C8.58304553,26.4526649 9.42727952,26.0305479 10.2715135,25.6084309 C10.8343362,25.1863139 10.9750418,25.0456083 11.2564532,24.3420799 L11.2564532,24.3420799 Z M36.7241784,11.1157475 C37.0055897,10.4122192 37.4277067,9.56798518 37.8498237,8.86445686 C39.5382917,6.3317549 42.4931107,4.3618756 45.8700466,3.37693595 C47.4178089,2.95481895 49.1062769,2.67340762 50.9354505,2.67340762 L51.3575675,2.67340762 C52.3425072,2.67340762 53.3274468,2.81411329 54.3123865,2.95481895 C54.7345035,3.09552462 55.2973261,3.23623028 55.7194431,3.37693595 C56.4229714,3.65834728 56.9857941,3.9397586 57.6893224,3.9397586 L57.9707337,3.9397586 C58.3928507,3.9397586 58.8149677,3.79905294 59.2370847,3.65834728 C59.3777904,3.65834728 59.5184961,3.51764161 59.6592017,3.51764161 C60.6441414,3.23623028 61.7697867,2.95481895 62.7547263,2.81411329 C64.7246056,2.53270196 66.6944849,2.53270196 68.6643642,2.95481895 C72.1820059,3.65834728 75.2775305,5.34681525 77.3881154,7.73881154 C73.5890625,7.17598889 69.6493039,7.59810588 66.2723679,9.14586819 C64.4431943,9.99010217 62.895432,10.9750418 61.4883754,12.3820985 C61.3476697,12.5228041 61.206964,12.6635098 61.0662584,12.8042155 C60.9255527,12.9449211 60.784847,13.2263325 60.6441414,13.2263325 C60.5034357,13.2263325 60.5034357,13.3670381 60.5034357,13.3670381 L60.36273,13.3670381 L59.940613,13.3670381 C58.6742621,13.2263325 57.5486168,13.3670381 56.2822658,13.6484495 C52.4832128,14.7740948 49.8098052,17.8696194 48.2620429,23.075729 C46.8549863,27.5783102 46.0107523,32.3623028 45.1665183,36.4427671 C44.1815786,36.3020614 43.196639,36.1613558 42.352405,36.0206501 C40.3825257,35.7392388 38.4126464,35.4578274 36.4427671,34.8950048 C33.7693595,33.9100651 31.5180688,32.3623028 29.8296009,30.3924235 C26.3119592,26.0305479 26.8747819,19.9802043 30.9552462,16.0404457 C31.5180688,15.4776231 32.2215972,14.9148004 32.9251255,14.4926834 C33.2065368,14.3519778 33.6286538,14.0705664 34.0507708,13.9298608 C34.7542991,13.6484495 35.3171218,13.3670381 35.8799444,12.9449211 C36.3020614,12.6635098 36.4427671,12.1006871 36.4427671,11.6785701 C36.7241784,11.2564532 36.7241784,11.1157475 36.7241784,11.1157475 L36.7241784,11.1157475 Z M4.22116993,42.774522 C6.47246056,37.4277067 11.5378645,33.4879481 17.7289137,32.9251255 C21.5279667,32.6437141 25.6084309,33.9100651 28.7039555,36.3020614 C29.4074839,36.8648841 30.1110122,37.4277067 30.6738348,38.1312351 C30.9552462,38.4126464 31.2366575,38.8347634 31.5180688,39.2568804 L31.6587745,39.397586 L31.6587745,39.397586 C31.6587745,39.397586 31.6587745,39.397586 31.5180688,39.5382917 C30.2517179,40.5232314 28.9853669,41.6488767 28.0004272,42.9152277 C27.1561932,41.7895823 25.6084309,40.8046427 23.3571403,39.9604087 C22.7943176,39.6789974 20.8244383,38.975469 19.4173817,38.975469 C18.010325,38.975469 17.4475024,39.5382917 17.1660911,40.1011144 C16.4625627,41.3674653 17.4475024,43.3373446 18.1510307,44.7444013 C18.2917364,45.0258126 18.432442,45.3072239 18.5731477,45.5886353 C18.7138534,45.7293409 18.7138534,46.0107523 18.854559,46.2921636 C19.1359704,47.1363976 19.4173817,48.1213372 19.9802043,48.5434542 C20.543027,48.9655712 21.2465553,48.8248656 21.9500837,48.5434542 C22.0907893,48.5434542 22.231495,48.4027486 22.3722006,48.4027486 L25.8898423,47.1363976 C25.7491366,47.5585146 25.6084309,47.9806316 25.3270196,48.5434542 C25.1863139,48.9655712 25.1863139,49.3876882 25.0456083,49.8098052 C24.9049026,50.3726279 24.9049026,50.9354505 24.6234913,51.2168619 C24.6234913,51.2168619 24.6234913,51.2168619 24.4827856,51.2168619 C24.3420799,51.2168619 24.2013743,51.0761562 24.0606686,51.0761562 C23.919963,51.0761562 23.7792573,50.9354505 23.7792573,50.9354505 C23.6385516,50.9354505 23.3571403,50.7947449 23.075729,50.6540392 C21.6686723,49.9505109 20.4023213,49.3876882 19.698793,49.3876882 C19.5580874,49.3876882 19.276676,49.3876882 19.1359704,49.5283939 C18.5731477,49.8098052 18.432442,50.3726279 18.2917364,50.9354505 C18.2917364,51.0761562 18.1510307,51.3575675 18.1510307,51.4982732 L17.8696194,51.4982732 L17.1660911,51.4982732 L16.6032684,51.4982732 L15.3369174,51.4982732 L16.8846797,50.7947449 C17.7289137,50.5133335 18.010325,50.0912165 17.7289137,48.9655712 L16.7439741,46.2921636 C16.7439741,46.1514579 16.6032684,45.8700466 16.4625627,45.5886353 C16.0404457,44.040873 15.4776231,41.7895823 13.7891551,41.6488767 L13.6484495,41.6488767 C11.5378645,41.6488767 9.99010217,44.885107 9.42727952,46.0107523 C8.7237512,47.5585146 7.87951721,49.6690995 8.16092854,51.4982732 L5.06540392,51.4982732 L4.3618756,51.4982732 L3.23623028,51.4982732 L3.23623028,51.4982732 L3.23623028,51.0761562 C3.09552462,50.0912165 3.09552462,49.1062769 3.09552462,48.1213372 C3.23623028,46.5735749 3.51764161,45.0258126 4.08046427,43.618756 L4.22116993,42.774522 L4.22116993,42.774522 Z M127.338626,51.2168619 C127.338626,51.2168619 127.197921,51.2168619 127.338626,51.2168619 L126.635098,51.2168619 L121.851105,51.2168619 L121.147577,51.2168619 L122.976751,50.2319222 C123.258162,50.0912165 123.398868,49.9505109 123.680279,49.8098052 C124.383807,49.3876882 125.228041,48.9655712 125.93157,49.2469826 C126.635098,49.5283939 127.057215,50.0912165 127.338626,50.7947449 C127.338626,50.9354505 127.338626,51.0761562 127.338626,51.2168619 L127.338626,51.2168619 Z M93.7099725,51.2168619 C92.8657385,51.3575675 91.7400932,51.3575675 90.7551536,51.2168619 L89.9109196,51.2168619 C89.9109196,50.5133335 89.9109196,49.9505109 89.7702139,49.2469826 C90.1923309,49.3876882 90.6144479,49.6690995 91.0365649,49.9505109 C91.3179762,50.0912165 91.5993875,50.2319222 91.7400932,50.3726279 L93.7099725,51.2168619 L93.7099725,51.2168619 Z M22.3722006,45.8700466 C22.0907893,46.0107523 21.5279667,46.2921636 21.387261,46.2921636 C21.2465553,46.1514579 21.1058497,45.7293409 21.1058497,45.5886353 C21.1058497,45.4479296 20.965144,45.3072239 20.965144,45.1665183 L19.5580874,42.2116993 C19.5580874,42.2116993 19.4173817,42.0709937 19.4173817,41.930288 C19.4173817,41.7895823 19.276676,41.508171 19.1359704,41.3674653 L19.4173817,41.3674653 C20.4023213,41.3674653 22.0907893,42.0709937 23.075729,42.352405 C25.4677253,43.3373446 26.1712536,44.040873 26.3119592,44.46299 C25.7491366,44.885107 24.7641969,45.0258126 24.0606686,45.3072239 C23.6385516,45.4479296 23.2164346,45.5886353 22.9350233,45.5886353 C22.7943176,45.7293409 22.653612,45.7293409 22.3722006,45.8700466 L22.3722006,45.8700466 Z M35.3171218,39.9604087 C37.8498237,38.6940577 40.663937,38.1312351 43.4780503,38.4126464 L43.7594616,38.4126464 C44.3222843,38.4126464 44.7444013,38.4126464 45.0258126,38.5533521 C45.0258126,38.8347634 44.885107,39.2568804 44.885107,39.397586 C44.885107,39.6789974 44.7444013,39.819703 44.7444013,39.9604087 C44.46299,41.6488767 44.3222843,43.196639 44.1815786,44.7444013 C42.6338163,44.46299 41.3674653,44.885107 40.8046427,45.7293409 C40.5232314,46.1514579 40.24182,46.8549863 40.8046427,47.9806316 L42.2116993,51.3575675 L40.3825257,51.3575675 L40.1011144,51.3575675 C40.1011144,51.2168619 39.9604087,51.0761562 39.9604087,50.7947449 C39.819703,50.6540392 39.819703,50.3726279 39.6789974,50.0912165 C39.2568804,48.6841599 38.6940577,46.8549863 37.1462954,46.8549863 C36.5834728,46.8549863 36.0206501,47.1363976 35.3171218,47.6992202 C34.6135935,48.2620429 34.0507708,49.1062769 33.6286538,49.8098052 C33.4879481,49.9505109 33.4879481,50.2319222 33.3472425,50.5133335 C33.2065368,50.7947449 33.0658311,51.2168619 32.9251255,51.3575675 L31.5180688,51.3575675 L30.8145405,51.3575675 L26.8747819,51.3575675 C27.7190159,46.4328693 30.8145405,42.2116993 35.3171218,39.9604087 L35.3171218,39.9604087 Z M43.0559333,46.8549863 C43.3373446,46.8549863 43.618756,46.8549863 44.040873,46.9956919 C44.040873,47.8399259 43.9001673,48.5434542 43.9001673,49.3876882 C43.7594616,49.1062769 43.618756,48.8248656 43.4780503,48.5434542 C43.196639,47.9806316 42.774522,47.2771033 42.6338163,46.8549863 C42.6338163,46.8549863 42.774522,46.8549863 43.0559333,46.8549863 L43.0559333,46.8549863 Z M36.8648841,49.1062769 C37.1462954,49.5283939 37.4277067,50.3726279 37.5684124,50.9354505 L37.5684124,51.0761562 L35.3171218,51.0761562 C36.0206501,50.0912165 36.5834728,49.2469826 36.8648841,49.1062769 L36.8648841,49.1062769 Z M77.3881154,45.1665183 L77.3881154,45.1665183 L77.3881154,45.1665183 L77.2474098,45.0258126 C74.8554135,40.663937 70.3528322,37.9905294 65.850251,37.9905294 C64.3024886,37.9905294 62.895432,38.2719407 61.4883754,38.8347634 C56.8450884,40.8046427 54.0309751,45.7293409 54.0309751,51.2168619 L46.2921636,51.2168619 C46.1514579,43.4780503 47.5585146,34.6135935 50.5133335,24.2013743 C51.6389788,20.4023213 53.8902695,15.7590344 58.8149677,15.6183288 C63.0361377,15.3369174 66.5537793,18.854559 69.5085982,21.809378 L70.2121266,22.5129063 C74.4332965,26.8747819 77.6695268,30.2517179 80.3429344,33.7693595 C82.7349307,36.8648841 85.126927,40.1011144 86.5339836,43.4780503 C87.237512,45.1665183 87.6596289,46.9956919 87.8003346,48.6841599 C87.8003346,49.3876882 87.9410403,49.9505109 87.9410403,50.6540392 L87.9410403,51.0761562 L87.9410403,51.3575675 L87.237512,51.3575675 L86.6746893,51.3575675 L81.749991,51.3575675 L80.9057571,51.3575675 C80.3429344,51.3575675 79.6394061,51.4982732 79.4987004,51.3575675 C79.3579947,51.0761562 79.3579947,50.3726279 79.3579947,50.0912165 C79.3579947,49.6690995 79.2172891,49.2469826 79.2172891,48.9655712 C78.9358777,47.9806316 78.5137608,46.8549863 77.9509381,45.7293409 L77.9509381,45.7293409 L77.3881154,45.1665183 L77.3881154,45.1665183 Z M56.4229714,49.9505109 L56.4229714,49.6690995 C56.4229714,49.1062769 56.5636771,48.4027486 56.8450884,47.8399259 C57.1264998,46.7142806 57.5486168,45.7293409 58.2521451,44.7444013 C59.7999074,42.352405 62.3326093,40.8046427 65.1467226,40.3825257 L66.2723679,40.3825257 C72.1820059,40.3825257 76.5438815,45.8700466 77.1067041,51.3575675 L57.5486168,51.3575675 L57.1264998,51.3575675 L56.2822658,51.3575675 C56.2822658,50.9354505 56.2822658,50.5133335 56.4229714,49.9505109 L56.4229714,49.9505109 Z M10.6936305,48.2620429 C11.2564532,46.2921636 12.1006871,44.885107 13.0856268,44.040873 L13.2263325,43.9001673 C13.2263325,43.9001673 13.2263325,44.040873 13.3670381,44.1815786 L14.4926834,47.2771033 C14.4926834,47.4178089 14.6333891,47.5585146 14.7740948,47.8399259 C14.9148004,48.1213372 15.0555061,48.5434542 15.1962118,48.6841599 C15.0555061,48.8248656 14.7740948,48.8248656 14.6333891,48.9655712 C14.4926834,48.9655712 14.3519778,49.1062769 14.2112721,49.1062769 L10.2715135,50.7947449 C10.2715135,50.2319222 10.5529248,48.9655712 10.6936305,48.2620429 L10.6936305,48.2620429 Z M131.559796,51.2168619 L131.137679,51.2168619 L129.589917,51.2168619 C129.589917,50.2319222 129.1678,49.2469826 128.464272,48.4027486 C127.760743,47.4178089 126.635098,46.8549863 125.509453,46.8549863 L125.368747,46.8549863 C124.383807,46.8549863 123.539573,47.4178089 122.695339,47.8399259 C122.413928,47.9806316 122.273222,48.1213372 122.132517,48.1213372 L115.800762,51.2168619 L98.9160821,51.2168619 L91.3179762,47.4178089 C91.1772706,47.4178089 91.1772706,47.2771033 91.0365649,47.2771033 C90.7551536,47.1363976 90.3330366,46.8549863 89.7702139,46.8549863 L89.6295082,46.8549863 L89.6295082,46.5735749 L89.6295082,46.1514579 C89.4888026,45.1665183 89.2073913,44.1815786 88.7852743,43.3373446 C88.3631573,41.930288 87.6596289,40.663937 86.9561006,39.397586 C86.815395,39.2568804 86.6746893,38.975469 86.5339836,38.8347634 C86.2525723,38.5533521 85.8304553,37.9905294 85.8304553,37.8498237 C85.8304553,37.4277067 86.815395,36.4427671 87.0968063,36.0206501 C87.237512,35.8799444 87.3782176,35.7392388 87.5189233,35.5985331 C92.4436215,29.5481895 99.9010217,25.8898423 107.499128,25.8898423 C113.830883,25.8898423 120.021932,28.4225442 124.94663,32.9251255 C129.871328,37.4277067 132.826147,44.1815786 132.826147,51.0761562 C132.544736,51.2168619 131.981913,51.2168619 131.559796,51.2168619 L131.559796,51.2168619 Z M107.499128,23.7792573 C98.3532594,23.7792573 89.7702139,28.4225442 84.5641043,35.8799444 C81.8906967,32.0808915 78.6544664,28.1411329 74.2925908,23.6385516 C73.7297682,23.075729 73.3076512,22.5129063 72.7448285,21.9500837 C69.9307152,18.9952647 66.9758963,15.6183288 63.0361377,14.0705664 C65.850251,11.3971588 69.9307152,9.84939651 74.2925908,9.84939651 C76.2624701,9.84939651 78.2323494,10.1308078 80.0615231,10.8343362 C80.2022287,10.8343362 80.3429344,10.9750418 80.4836401,10.9750418 C80.9057571,11.1157475 81.327874,11.2564532 81.749991,11.2564532 L81.749991,11.2564532 C82.3128137,11.2564532 82.8756364,10.9750418 83.438459,10.6936305 C83.7198703,10.5529248 84.0012817,10.4122192 84.282693,10.4122192 C86.1118666,9.84939651 88.0817459,9.70869085 90.1923309,9.84939651 C93.5692668,10.1308078 96.9462028,11.2564532 99.3381991,13.3670381 C100.60455,14.3519778 101.58949,15.4776231 102.293018,16.7439741 C102.433724,16.8846797 102.574429,17.1660911 102.574429,17.4475024 C102.715135,18.010325 102.996546,18.432442 103.277958,18.854559 C103.700075,19.276676 104.262897,19.4173817 104.82572,19.5580874 C104.966426,19.5580874 105.107131,19.5580874 105.247837,19.698793 C108.06195,20.543027 110.453947,22.231495 112.142415,24.2013743 C110.453947,23.7792573 109.04689,23.7792573 107.499128,23.7792573 L107.499128,23.7792573 Z M111.861003,32.6437141 L111.861003,32.6437141 L111.861003,32.6437141 L111.861003,32.6437141 L111.861003,32.6437141 L111.861003,32.6437141 L111.720298,32.0808915 C111.016769,30.3924235 109.328301,29.2667782 107.358422,29.2667782 C106.092071,29.2667782 104.82572,29.8296009 103.981486,30.8145405 C102.855841,32.0808915 102.574429,33.4879481 103.137252,34.7542991 C103.277958,35.0357104 103.418663,35.4578274 103.559369,35.7392388 L107.358422,43.4780503 L110.03183,37.9905294 C110.172535,37.7091181 110.313241,37.4277067 110.594652,37.0055897 C111.298181,35.8799444 112.001709,34.4728878 111.861003,33.0658311 L111.861003,33.0658311 L111.861003,32.6437141 L111.861003,32.6437141 Z M109.609713,33.4879481 L107.358422,37.9905294 L106.232777,35.7392388 C106.092071,35.4578274 105.951365,35.3171218 105.951365,35.0357104 C105.247837,33.9100651 104.966426,33.2065368 105.529248,32.3623028 C105.951365,31.7994802 106.654894,31.3773632 107.499128,31.3773632 C107.780539,31.3773632 108.06195,31.3773632 108.343362,31.5180688 C109.04689,31.9401858 109.609713,32.6437141 109.609713,33.4879481 L109.609713,33.4879481 Z M101.026667,43.7594616 L99.7603161,39.819703 C99.6196104,39.5382917 99.6196104,39.1161747 99.4789048,38.6940577 C99.1974934,37.5684124 98.9160821,36.3020614 98.2125538,35.5985331 C97.5090255,34.7542991 96.3833801,34.3321821 95.1170292,34.3321821 C94.2727952,34.3321821 93.5692668,34.4728878 92.8657385,34.7542991 C90.8958592,35.7392388 89.9109196,37.9905294 90.4737422,39.9604087 C90.8958592,41.6488767 91.7400932,42.2116993 93.1471499,42.6338163 L100.323139,45.0258126 L101.58949,45.3072239 L101.167373,43.9001673 C101.167373,44.040873 101.167373,43.9001673 101.026667,43.7594616 L101.026667,43.7594616 Z M96.6647915,37.8498237 C96.8054971,38.4126464 97.0869085,38.975469 97.2276141,39.5382917 C97.5090255,40.3825257 97.7904368,41.086054 98.0718481,41.930288 L95.9612631,41.2267597 C95.6798518,41.086054 95.3984405,41.086054 95.1170292,40.9453484 C94.4135008,40.8046427 93.4285612,40.5232314 93.1471499,40.1011144 C92.4436215,39.397586 92.5843272,38.6940577 92.7250329,38.2719407 C93.0064442,37.4277067 93.7099725,36.7241784 94.5542065,36.5834728 L95.1170292,36.5834728 C95.3984405,36.5834728 95.6798518,36.5834728 95.8205575,36.7241784 C96.2426745,37.0055897 96.3833801,37.1462954 96.6647915,37.8498237 L96.6647915,37.8498237 Z M119.881226,34.3321821 C119.177698,34.3321821 118.333464,34.4728878 117.770641,34.8950048 C116.50429,35.5985331 116.222879,36.7241784 115.941467,37.7091181 C115.941467,37.9905294 115.800762,38.1312351 115.800762,38.4126464 L113.26806,45.7293409 L119.881226,43.4780503 C120.162637,43.3373446 120.444049,43.3373446 120.72546,43.196639 C121.288283,43.0559333 121.991811,42.774522 122.554634,42.6338163 C124.383807,41.7895823 124.94663,39.5382917 124.524513,37.8498237 C123.820985,35.7392388 121.991811,34.3321821 119.881226,34.3321821 L119.881226,34.3321821 Z M119.177698,36.7241784 C119.318403,36.7241784 119.599815,36.5834728 119.881226,36.5834728 C120.162637,36.5834728 120.444049,36.5834728 120.584754,36.7241784 C121.428988,37.0055897 122.132517,37.9905294 122.132517,38.8347634 C122.132517,40.1011144 121.569694,40.24182 120.162637,40.8046427 L116.785701,41.930288 L118.192758,37.8498237 C118.474169,37.1462954 118.614875,37.0055897 119.177698,36.7241784 L119.177698,36.7241784 Z" id="Shape"></path>
                </g>
            </g>
        </g>
    </g>
</svg>
